<svg xmlns="http://www.w3.org/2000/svg" width="164" height="81" viewBox="0 0 164 81">
  <g id="Group_28" data-name="Group 28" transform="translate(-7626 -636)">
    <rect id="Rectangle_7" data-name="Rectangle 7" width="164" height="81" transform="translate(7626 636)" fill="none"/>
    <g id="Group_27" data-name="Group 27" transform="translate(36.857 -253.684)">
      <g id="LOGO" transform="translate(7624.143 911.684)">
        <g id="Group_25" data-name="Group 25" transform="translate(0 0)">
          <path id="Path_45" data-name="Path 45" d="M267.238,237.2l.161-.3a13.97,13.97,0,0,0-4.586-1.542,13.744,13.744,0,0,0-1.921-.137,12.052,12.052,0,0,0-11.376,7.649l1.645.609a10.292,10.292,0,0,1,9.732-6.5,11.952,11.952,0,0,1,1.674.12,14.8,14.8,0,0,1,8.481,4.814l.968-.929A19.079,19.079,0,0,0,267.238,237.2Z" transform="translate(-242.803 -228.327)" fill="#fff"/>
          <path id="Path_46" data-name="Path 46" d="M248.563,269.833a12.32,12.32,0,0,1-7.251-11.032,11.835,11.835,0,0,1,2-6.589,12.418,12.418,0,0,1,1.743-2.076l.809.845a11.23,11.23,0,0,0-1.579,1.879,10.67,10.67,0,0,0-1.8,5.941,11,11,0,0,0,6.575,9.972Z" transform="translate(-236.118 -240.482)" fill="#fff"/>
          <path id="Path_47" data-name="Path 47" d="M301.725,297.908l-.507-1.183c-.046-.091-.11-.214-.188-.358-.888,1.681-5.559,9.891-13.239,10.987a14.105,14.105,0,0,1-1.885.295,12.009,12.009,0,0,1-5.1-1.119l-.585,1.073a13.387,13.387,0,0,0,5.685,1.249,14.627,14.627,0,0,0,2.062-.149c7.41-1.058,12.087-7.835,13.81-10.818Z" transform="translate(-267.824 -278.153)" fill="#fff"/>
          <path id="Path_48" data-name="Path 48" d="M383.393,329.455a28.48,28.48,0,0,1-4.939,5.253l.429.528a29,29,0,0,0,4.9-5.156c3.057,4.171,8.143,9.118,15.515,10.171l.175-1.223c-7.535-1.076-12.582-6.4-15.583-10.938C383.745,327.876,383.393,329.455,383.393,329.455Z" transform="translate(-347.867 -303.986)" fill="#fff"/>
          <path id="Path_49" data-name="Path 49" d="M466.944,350.668a14.3,14.3,0,0,1-2.957-.115,14.925,14.925,0,0,1-6.522-2.687l-.642.907a16.023,16.023,0,0,0,7.006,2.88,15.614,15.614,0,0,0,2.2.158c.306,0,.61-.012.913-.03Z" transform="translate(-411.725 -320.117)" fill="#fff"/>
          <path id="Path_50" data-name="Path 50" d="M372.046,273.171l-.587.251-.507-1.183a27.25,27.25,0,0,0-4.182-5.922l-.968.929a24.41,24.41,0,0,1,3.782,5.155l1.78,3.106,1.521-.872Z" transform="translate(-337.558 -253.667)" fill="#fff"/>
          <path id="Path_51" data-name="Path 51" d="M439.166,306.753a13.387,13.387,0,0,1-1.9-.137c-7.926-1.132-12.563-9.18-13.412-10.781l1.226-.65c.487.918,4.968,9,12.383,10.058a12.012,12.012,0,0,0,1.7.123v1.388Z" transform="translate(-384.86 -277.19)" fill="#fff"/>
          <path id="Path_52" data-name="Path 52" d="M525.35,239.542a10.745,10.745,0,0,0-2.85-4.577,11.61,11.61,0,0,0-6.432-3.1l.225-1.572a13.187,13.187,0,0,1,7.306,3.522,12.338,12.338,0,0,1,3.27,5.257Z" transform="translate(-460 -224.315)" fill="#fff"/>
          <path id="Path_53" data-name="Path 53" d="M448.313,229.876l-.749-.852a16.767,16.767,0,0,1,8.719-4.232,15.592,15.592,0,0,1,2.2-.157,14.261,14.261,0,0,1,9.925,3.914l-.784.82a13.132,13.132,0,0,0-9.141-3.6,14.456,14.456,0,0,0-2.037.146A15.656,15.656,0,0,0,448.313,229.876Z" transform="translate(-404.181 -219.702)" fill="#fff"/>
          <path id="Path_54" data-name="Path 54" d="M403.162,248.587l-3.935-1.872.936-1.968a30.541,30.541,0,0,1,6.951-9.274l1.638-1.438,2.875,3.275-1.638,1.438a26.4,26.4,0,0,0-5.89,7.871Z" transform="translate(-364.794 -227.363)" fill="#fff"/>
          <path id="Path_55" data-name="Path 55" d="M235.761,250.238a13.144,13.144,0,0,1,3.024-14.809,14.058,14.058,0,0,1,3.113-2.25l.64,1.2a12.7,12.7,0,0,0-2.812,2.033,11.783,11.783,0,0,0-2.718,13.278Z" transform="translate(-230.703 -226.665)" fill="#fff"/>
          <path id="Path_56" data-name="Path 56" d="M262.29,235.082l-.822-.86a13.169,13.169,0,0,1,9.163-3.607,14.244,14.244,0,0,1,6.912,1.784l-.566,1.046a13.06,13.06,0,0,0-6.346-1.641A11.987,11.987,0,0,0,262.29,235.082Z" transform="translate(-252.542 -224.576)" fill="#fff"/>
          <path id="Path_57" data-name="Path 57" d="M218.723,245.074H218a16.183,16.183,0,0,1,5.072-11.785l.5.525A15.463,15.463,0,0,0,218.723,245.074Z" transform="translate(-217.12 -226.755)" fill="#fff"/>
          <path id="Path_58" data-name="Path 58" d="M277.733,206a19.666,19.666,0,0,0-9.559-4.268,19.119,19.119,0,0,0-2.691-.192,17.9,17.9,0,0,0-9.8,2.872l-.529-.811a18.86,18.86,0,0,1,10.334-3.029,20.086,20.086,0,0,1,2.828.2,20.621,20.621,0,0,1,10.027,4.471Z" transform="translate(-247.393 -200.096)" fill="#fff"/>
          <path id="Path_59" data-name="Path 59" d="M405.493,210.19l-1.91-1.348c3.056-4.332,8.337-9.729,16.136-10.843l.331,2.315C413.076,201.31,408.285,206.234,405.493,210.19Z" transform="translate(-368.343 -197.999)" fill="#fff"/>
          <path id="Path_60" data-name="Path 60" d="M419.766,220.954l-1.352-1.022c2.675-3.538,7.233-7.952,13.756-8.883a18.137,18.137,0,0,1,2.558-.183,17.147,17.147,0,0,1,6.33,1.192l-.623,1.576a15.459,15.459,0,0,0-5.707-1.073,16.447,16.447,0,0,0-2.318.166C426.458,213.576,422.249,217.669,419.766,220.954Z" transform="translate(-380.428 -208.484)" fill="#fff"/>
          <path id="Path_61" data-name="Path 61" d="M402.672,217.956l-1.891-.77.562-1.382.049-.076c2.442-3.865,7.8-10.529,16.225-11.731a19.467,19.467,0,0,1,2.743-.2v2.042a17.429,17.429,0,0,0-2.454.175c-7.192,1.026-11.979,6.38-14.739,10.724Z" transform="translate(-366.06 -202.727)" fill="#fff"/>
          <path id="Path_62" data-name="Path 62" d="M382.694,232.961l-.979-1.2a28.407,28.407,0,0,0-5.413-5.842l.907-1.135a29.838,29.838,0,0,1,5.678,6.118l.932,1.14Z" transform="translate(-346.114 -219.824)" fill="#fff"/>
          <path id="Path_63" data-name="Path 63" d="M506.416,206.423a17.732,17.732,0,0,0-12.336-4.882,19.15,19.15,0,0,0-2.69.192l-.137-.959a20.086,20.086,0,0,1,2.827-.2,18.7,18.7,0,0,1,13.006,5.151Z" transform="translate(-439.78 -200.096)" fill="#fff"/>
          <path id="Path_64" data-name="Path 64" d="M322.662,245.829l-.353-2.471c9.88-1.411,14.8-12.919,14.852-13.035.219-.526,5.5-12.934,16.8-14.547l.353,2.471c-9.911,1.414-14.8,12.919-14.851,13.035C339.246,231.81,333.961,244.216,322.662,245.829Z" transform="translate(-302.118 -212.484)" fill="#fff"/>
          <path id="Path_65" data-name="Path 65" d="M242.03,328.176l1.084-1.865a13.7,13.7,0,0,0,8.913,1.668l.306,2.134a16.786,16.786,0,0,0,6-2.1l-1.808-3.148a12.924,12.924,0,0,1-6.573,1.791,11.888,11.888,0,0,1-8.276-3.254,10.862,10.862,0,0,1-2.462-3.5l-3.117,1.365a14.291,14.291,0,0,0,3.225,4.591l-.157.164A15.183,15.183,0,0,0,242.03,328.176Z" transform="translate(-231.868 -297.33)" fill="#fff"/>
          <path id="Path_66" data-name="Path 66" d="M260.566,316.96a16.45,16.45,0,0,1-11.444-4.526l.685-.716a15.461,15.461,0,0,0,10.757,4.251,16.835,16.835,0,0,0,2.375-.171c8.148-1.164,13.074-8.059,15.291-12.083l.562-1.331.913.386-.595,1.4c-2.3,4.182-7.442,11.382-16.032,12.609A17.846,17.846,0,0,1,260.566,316.96Z" transform="translate(-242.482 -283.056)" fill="#fff"/>
          <path id="Path_67" data-name="Path 67" d="M252.409,366.62a19.118,19.118,0,0,1-13.3-5.27l1.255-1.312a17.31,17.31,0,0,0,12.041,4.766,18.659,18.659,0,0,0,2.637-.189,19.317,19.317,0,0,0,9.509-4.3l1.145,1.409a21.106,21.106,0,0,1-10.4,4.687A20.466,20.466,0,0,1,252.409,366.62Z" transform="translate(-234.326 -330.035)" fill="#fff"/>
          <path id="Path_68" data-name="Path 68" d="M324.613,324.227l-.225-1.572c7.32-1.045,12.163-6.492,14.939-10.882.085-.147.832-1.444,1.119-1.989l1.406.739c-.317.6-1.123,2-1.157,2.058l-.016.027C337.725,317.284,332.54,323.1,324.613,324.227Z" transform="translate(-303.812 -289.086)" fill="#fff"/>
          <path id="Path_69" data-name="Path 69" d="M236.429,299.562a14.253,14.253,0,0,1-7.1-14.655l1.12.178a13.12,13.12,0,0,0,6.552,13.5Z" transform="translate(-226.209 -268.815)" fill="#fff"/>
          <path id="Path_70" data-name="Path 70" d="M229.462,228.764l-2.152-.341a14.815,14.815,0,0,1,6.109-9.764,16.24,16.24,0,0,1,11.812-2.8,16.661,16.661,0,0,1,2.834.664l-.68,2.07a14.483,14.483,0,0,0-2.462-.577C237.382,216.945,230.589,221.662,229.462,228.764Z" transform="translate(-224.709 -212.412)" fill="#fff"/>
          <path id="Path_71" data-name="Path 71" d="M217.735,335.313a18.459,18.459,0,0,1-4.473-6.637l2.535-.994a15.757,15.757,0,0,0,3.82,5.663Z" transform="translate(-213.262 -303.671)" fill="#fff"/>
          <path id="Path_72" data-name="Path 72" d="M233.309,313.821a17.876,17.876,0,0,1-12.435-4.924,16.717,16.717,0,0,1-5.156-10.833l0-.029-.045-1.2,1.587-.059.044,1.187a15.132,15.132,0,0,0,4.669,9.789,16.3,16.3,0,0,0,11.336,4.483,17.643,17.643,0,0,0,2.493-.179l.225,1.572A19.275,19.275,0,0,1,233.309,313.821Z" transform="translate(-215.226 -278.485)" fill="#fff"/>
          <path id="Path_73" data-name="Path 73" d="M348.14,305.5l-.493-.86.43-.247c5.606-3.218,8.737-9.369,9.308-10.57l.213-.448.9.426-.213.448c-.593,1.247-3.848,7.639-9.709,11Z" transform="translate(-322.764 -275.714)" fill="#fff"/>
          <path id="Path_74" data-name="Path 74" d="M330.627,226.151a23.727,23.727,0,0,0-1.075-2.172l.252-.139c-2.338-4.243-7.563-11.546-16.289-12.792a18.154,18.154,0,0,0-2.559-.183v1.695a16.458,16.458,0,0,1,2.319.166,16.054,16.054,0,0,1,2.7.629l-.62,1.885c8.054,2.649,12.1,12.119,12.144,12.212.223.537,5.6,13.168,17.152,14.817l.479-3.355C335.5,237.541,330.674,226.263,330.627,226.151Z" transform="translate(-292.867 -208.484)" fill="#fff"/>
          <path id="Path_75" data-name="Path 75" d="M511.33,232.54h-1.362a13.043,13.043,0,0,0-4.539-9.838,14.445,14.445,0,0,0-11.538-3.28l-.192-1.348a15.8,15.8,0,0,1,12.622,3.6A14.4,14.4,0,0,1,511.33,232.54Z" transform="translate(-441.774 -214.221)" fill="#fff"/>
          <rect id="Rectangle_15" data-name="Rectangle 15" width="3.682" height="11.424" transform="translate(16.366 12.608)" fill="#fff"/>
          <rect id="Rectangle_16" data-name="Rectangle 16" width="11.423" height="3.683" transform="translate(12.495 16.479)" fill="#fff"/>
          <path id="Path_76" data-name="Path 76" d="M578.693,241.961l-1.455-.135c.047-.5.07-1.017.07-1.529a16.226,16.226,0,0,0-5.083-11.814l1.01-1.056a17.675,17.675,0,0,1,5.534,12.87C578.769,240.854,578.744,241.414,578.693,241.961Z" transform="translate(-505.759 -221.978)" fill="#fff"/>
          <path id="Path_77" data-name="Path 77" d="M560.4,257.937l-.95-.189a12,12,0,0,0-3.529-11.059l.669-.7a12.967,12.967,0,0,1,3.81,11.947Z" transform="translate(-492.478 -237.104)" fill="#fff"/>
          <path id="Path_78" data-name="Path 78" d="M507.567,248.259l-2.2-.56a8.865,8.865,0,0,0,.273-2.187c0-5.192-4.5-9.416-10.037-9.416a11.723,11.723,0,0,0-1.638.117q-.217.031-.434.071l-.409-2.232c.174-.032.348-.06.523-.086a13.982,13.982,0,0,1,1.957-.14c6.786,0,12.306,5.242,12.306,11.685A11.141,11.141,0,0,1,507.567,248.259Z" transform="translate(-441.304 -227.192)" fill="#fff"/>
          <path id="Path_79" data-name="Path 79" d="M426.93,242.519l-.262-.472c-5.21,2.888-8.259,8.541-8.818,9.646l-.552,1.123-.583-.287-.241.534,2.07.93.928-2.067c.546-1.012,4.784-8.474,11.6-9.731l-.205-1.114A13.015,13.015,0,0,0,426.93,242.519Z" transform="translate(-378.848 -233.104)" fill="#fff"/>
          <path id="Path_80" data-name="Path 80" d="M448.407,353.137a18.37,18.37,0,0,1-2.589-.186,19.526,19.526,0,0,1-10.624-5.32l1.392-1.494a17.528,17.528,0,0,0,9.52,4.792,16.678,16.678,0,0,0,2.743.159l.048,2.042C448.733,353.134,448.57,353.137,448.407,353.137Z" transform="translate(-394.101 -318.708)" fill="#fff"/>
        </g>
      </g>
      <g id="OPENSOURCECOMMUNITY" transform="translate(7681.788 934.851)">
        <g id="Group_26" data-name="Group 26" transform="translate(0 0)">
          <path id="Path_81" data-name="Path 81" d="M524.588,326.837l1.086-3.462h.964l1.1,3.462h-.911l-.192-.708h-1l-.176.708Zm1.534-2.641-.314,1.268h.655Z" transform="translate(-524.588 -323.327)" fill="#fff"/>
          <path id="Path_82" data-name="Path 82" d="M544.579,323.375h1.4c.959,0,1.321.49,1.321,1.156a1.1,1.1,0,0,1-.57,1.038l.676,1.268H546.39l-.522-1.1h-.431v1.1h-.857Zm1.806,1.161c0-.309-.112-.463-.511-.463h-.437v.98h.453C546.187,325.053,546.384,324.92,546.384,324.536Z" transform="translate(-540.877 -323.327)" fill="#fff"/>
          <path id="Path_83" data-name="Path 83" d="M562.99,323.375h1.134c1.294,0,1.726.613,1.726,1.7a1.536,1.536,0,0,1-1.72,1.763h-1.14Zm.857.7v2.056h.325c.708,0,.762-.431.762-1.017,0-.676-.069-1.038-.836-1.038h-.25Z" transform="translate(-555.879 -323.327)" fill="#fff"/>
          <path id="Path_84" data-name="Path 84" d="M583.691,323.375h.825v2.274c0,1.022-.783,1.241-1.4,1.241-.591,0-1.347-.2-1.347-1.246v-2.269h.857v2.109c0,.575.2.708.527.708.389,0,.533-.176.533-.7v-2.114Z" transform="translate(-571.185 -323.327)" fill="#fff"/>
          <path id="Path_85" data-name="Path 85" d="M600.729,326.129h.895v-2.045h-.895v-.708h2.652v.708h-.9v2.045h.9v.708h-2.652Z" transform="translate(-586.631 -323.327)" fill="#fff"/>
          <path id="Path_86" data-name="Path 86" d="M619.69,326.837h-.81v-3.462h.932l1.124,2.077v-2.077h.8v3.462h-.868l-1.182-2.215Z" transform="translate(-601.422 -323.327)" fill="#fff"/>
          <path id="Path_87" data-name="Path 87" d="M640.312,324.9c0,1-.367,1.784-1.481,1.784-1,0-1.454-.6-1.454-1.747,0-1.044.4-1.816,1.449-1.816C639.811,323.116,640.312,323.574,640.312,324.9Zm-.911,0c0-.847-.069-1.081-.575-1.081-.458,0-.538.272-.538,1.118,0,.7.048,1.049.543,1.049S639.4,325.694,639.4,324.9Z" transform="translate(-616.493 -323.116)" fill="#fff"/>
          <path id="Path_88" data-name="Path 88" d="M528.138,352.354c0,1.012-.415,1.784-1.475,1.784-1,0-1.443-.634-1.443-1.758,0-1.054.426-1.805,1.454-1.805C527.67,350.575,528.138,351.1,528.138,352.354Zm-.729,0c0-.868-.128-1.209-.735-1.209-.58,0-.724.351-.724,1.236,0,.772.107,1.188.714,1.188S527.409,353.174,527.409,352.354Z" transform="translate(-525.103 -345.491)" fill="#fff"/>
          <path id="Path_89" data-name="Path 89" d="M545.27,350.833h1.3c.927,0,1.273.485,1.273,1.161a1.152,1.152,0,0,1-1.3,1.2h-.591v1.1h-.687Zm1.848,1.188c0-.362-.128-.618-.612-.618h-.548v1.22h.57C546.9,352.623,547.118,352.468,547.118,352.021Z" transform="translate(-541.441 -345.701)" fill="#fff"/>
          <path id="Path_90" data-name="Path 90" d="M566.417,350.833v.57h-1.763v.842h1.6v.565h-1.6v.911h1.757v.575h-2.445v-3.462Z" transform="translate(-556.676 -345.701)" fill="#fff"/>
          <path id="Path_91" data-name="Path 91" d="M582.452,354.295h-.65v-3.462h.751l1.347,2.354v-2.354h.639v3.462h-.7l-1.4-2.46Z" transform="translate(-571.208 -345.701)" fill="#fff"/>
          <path id="Path_92" data-name="Path 92" d="M603.951,361.286v-.559h1.459v.559Z" transform="translate(-589.256 -353.763)" fill="#fff"/>
          <path id="Path_93" data-name="Path 93" d="M619.786,351.538c0-.565.57-.964,1.284-.964a2.114,2.114,0,0,1,1.06.261l-.192.639a1.28,1.28,0,0,0-.863-.33c-.325,0-.559.1-.559.346,0,.623,1.752.415,1.752,1.624,0,.724-.666,1.022-1.4,1.022a2.123,2.123,0,0,1-1.15-.314l.224-.634a1.478,1.478,0,0,0,1,.383c.336,0,.6-.112.6-.389C621.533,352.449,619.786,352.715,619.786,351.538Z" transform="translate(-602.103 -345.49)" fill="#fff"/>
          <path id="Path_94" data-name="Path 94" d="M640.325,352.354c0,1.012-.415,1.784-1.475,1.784-1,0-1.443-.634-1.443-1.758,0-1.054.426-1.805,1.454-1.805C639.856,350.575,640.325,351.1,640.325,352.354Zm-.73,0c0-.868-.128-1.209-.735-1.209-.581,0-.724.351-.724,1.236,0,.772.106,1.188.714,1.188S639.6,353.174,639.6,352.354Z" transform="translate(-616.517 -345.491)" fill="#fff"/>
          <path id="Path_95" data-name="Path 95" d="M658.788,350.833h.666v2.232a1.188,1.188,0,0,1-1.347,1.284,1.144,1.144,0,0,1-1.31-1.268v-2.248h.687v2.13c0,.644.218.82.65.82.49,0,.655-.224.655-.831v-2.12Z" transform="translate(-632.316 -345.701)" fill="#fff"/>
          <path id="Path_96" data-name="Path 96" d="M675.837,350.833h1.284c.927,0,1.278.442,1.278,1.119a1.046,1.046,0,0,1-.6,1.012l.73,1.331h-.815l-.607-1.2h-.586v1.2h-.687Zm1.832,1.129c0-.389-.16-.559-.612-.559h-.533v1.134h.548C677.419,352.537,677.669,352.394,677.669,351.962Z" transform="translate(-647.832 -345.701)" fill="#fff"/>
          <path id="Path_97" data-name="Path 97" d="M696.9,353.866a2.222,2.222,0,0,1-1.086.272c-1,0-1.566-.591-1.566-1.779a1.587,1.587,0,0,1,1.656-1.784,1.86,1.86,0,0,1,.964.256l-.229.586a1.179,1.179,0,0,0-.767-.272c-.586,0-.895.4-.895,1.2s.282,1.23.9,1.23a1.544,1.544,0,0,0,.863-.256Z" transform="translate(-662.833 -345.491)" fill="#fff"/>
          <path id="Path_98" data-name="Path 98" d="M716,350.833v.57h-1.763v.842h1.6v.565h-1.6v.911h1.757v.575h-2.445v-3.462Z" transform="translate(-678.56 -345.701)" fill="#fff"/>
          <path id="Path_99" data-name="Path 99" d="M528.621,381.325a2.222,2.222,0,0,1-1.086.272c-1,0-1.566-.591-1.566-1.779a1.588,1.588,0,0,1,1.656-1.784,1.859,1.859,0,0,1,.964.256l-.229.586a1.179,1.179,0,0,0-.767-.272c-.586,0-.895.4-.895,1.2s.282,1.23.9,1.23a1.544,1.544,0,0,0,.863-.256Z" transform="translate(-525.713 -367.865)" fill="#fff"/>
          <path id="Path_100" data-name="Path 100" d="M546.837,379.813c0,1.012-.415,1.784-1.475,1.784-1,0-1.443-.634-1.443-1.758,0-1.055.426-1.806,1.454-1.806C546.368,378.034,546.837,378.556,546.837,379.813Zm-.73,0c0-.868-.128-1.209-.735-1.209-.581,0-.724.351-.724,1.236,0,.772.106,1.188.714,1.188S546.107,380.633,546.107,379.813Z" transform="translate(-540.339 -367.865)" fill="#fff"/>
          <path id="Path_101" data-name="Path 101" d="M565.093,379.363l-.591,1.193h-.49l-.639-1.241v2.439h-.554v-3.462h.607l.831,1.587.81-1.587h.591v3.462h-.565Z" transform="translate(-555.74 -368.076)" fill="#fff"/>
          <path id="Path_102" data-name="Path 102" d="M583.79,379.363l-.591,1.193h-.49l-.639-1.241v2.439h-.554v-3.462h.607l.831,1.587.81-1.587h.591v3.462h-.565Z" transform="translate(-570.975 -368.076)" fill="#fff"/>
          <path id="Path_103" data-name="Path 103" d="M602.694,378.292h.666v2.232a1.188,1.188,0,0,1-1.347,1.284,1.144,1.144,0,0,1-1.31-1.268v-2.248h.687v2.13c0,.644.219.82.65.82.49,0,.655-.224.655-.831v-2.12Z" transform="translate(-586.609 -368.076)" fill="#fff"/>
          <path id="Path_104" data-name="Path 104" d="M619.847,381.754h-.65v-3.462h.751l1.347,2.354v-2.354h.639v3.462h-.7l-1.4-2.46Z" transform="translate(-601.679 -368.076)" fill="#fff"/>
          <path id="Path_105" data-name="Path 105" d="M638.441,381.179h.921v-2.311h-.921v-.575h2.546v.575h-.937v2.311h.937v.575h-2.546Z" transform="translate(-617.36 -368.076)" fill="#fff"/>
          <path id="Path_106" data-name="Path 106" d="M659.091,378.862H658v2.892h-.687v-2.892H656.22v-.57h2.87Z" transform="translate(-631.847 -368.076)" fill="#fff"/>
          <path id="Path_107" data-name="Path 107" d="M676.32,379.842l.714-1.55h.687l-1.086,2.1v1.363h-.692v-1.347l-1.14-2.114h.74Z" transform="translate(-646.988 -368.076)" fill="#fff"/>
        </g>
      </g>
    </g>
  </g>
</svg>
