<svg xmlns="http://www.w3.org/2000/svg" width="164" height="81" viewBox="0 0 164 81">
  <g id="Group_22" data-name="Group 22" transform="translate(-7587 -507)">
    <rect id="Rectangle_7" data-name="Rectangle 7" width="164" height="81" transform="translate(7587 507)" fill="none"/>
    <g id="Page-1" transform="translate(7617 533)">
      <g id="styleguide" transform="translate(0 0)">
        <g id="Group-16" transform="translate(0 0)">
          <g id="Group-9" transform="translate(0 0)">
            <g id="Group-27" transform="translate(0 0)">
              <g id="logo_lockup_firebase_horizontal_knockout" transform="translate(0)">
                <path id="Shape" d="M69.154,32.543H67.182V16.972h8.954v1.913H69.154V24h6.3v1.869h-6.3Zm10.689-13.33a1.38,1.38,0,0,1-1.762.18,1.429,1.429,0,0,1-.517-1.72,1.392,1.392,0,0,1,1.561-.85,1.412,1.412,0,0,1,1.125,1.389,1.369,1.369,0,0,1-.408,1Zm0,13.33H77.872V21.887h1.971Zm4.326,0H82.2V21.887h1.884v1.74h.085A2.719,2.719,0,0,1,85.4,22.191a3.488,3.488,0,0,1,1.811-.566,3.705,3.705,0,0,1,1.478.262l-.75,1.869a2.939,2.939,0,0,0-1.049-.153,2.559,2.559,0,0,0-1.9.86,3.116,3.116,0,0,0-.825,2.251Zm9.921.34a5.024,5.024,0,0,1-3.866-1.609,5.752,5.752,0,0,1-1.489-4.059,5.92,5.92,0,0,1,1.446-4,4.657,4.657,0,0,1,3.7-1.675,4.808,4.808,0,0,1,3.739,1.544,5.9,5.9,0,0,1,1.4,4.132l-.022.37H90.7a3.658,3.658,0,0,0,1.061,2.548,3.19,3.19,0,0,0,2.281.934,2.825,2.825,0,0,0,2.87-1.826l1.757.739a4.76,4.76,0,0,1-1.692,2.076A4.915,4.915,0,0,1,94.091,32.883Zm2.828-6.966a2.849,2.849,0,0,0-.825-1.74,2.883,2.883,0,0,0-2.264-.809,2.8,2.8,0,0,0-1.9.7,3.566,3.566,0,0,0-1.1,1.869Zm9.221,6.966a4.4,4.4,0,0,1-2.145-.51,3.654,3.654,0,0,1-1.424-1.3h-.085v1.475H100.6V16.972h1.971v4.915l-.085,1.478h.085A3.654,3.654,0,0,1,104,22.06a4.4,4.4,0,0,1,2.145-.522,4.593,4.593,0,0,1,3.515,1.631,5.79,5.79,0,0,1,1.478,4.045,5.8,5.8,0,0,1-1.478,4.045A4.563,4.563,0,0,1,106.141,32.883Zm-.321-1.826A3.113,3.113,0,0,0,108.176,30a3.93,3.93,0,0,0,.986-2.795,3.93,3.93,0,0,0-.986-2.795,3.183,3.183,0,0,0-4.723-.01,3.945,3.945,0,0,0-.974,2.805,3.952,3.952,0,0,0,.984,2.814,3.118,3.118,0,0,0,2.363,1.045Zm10.333,1.826a4.1,4.1,0,0,1-2.795-.979,3.276,3.276,0,0,1-1.125-2.588,3.213,3.213,0,0,1,1.329-2.729,5.335,5.335,0,0,1,3.277-.989,5.556,5.556,0,0,1,2.845.652v-.3a2.4,2.4,0,0,0-.793-1.881,2.819,2.819,0,0,0-1.946-.7,2.986,2.986,0,0,0-1.553.413,2.122,2.122,0,0,0-.954,1.132l-1.8-.783a4.163,4.163,0,0,1,1.436-1.781,4.5,4.5,0,0,1,2.828-.816,4.855,4.855,0,0,1,3.347,1.189,4.244,4.244,0,0,1,1.329,3.371v6.449h-1.891V31.065H119.6a3.856,3.856,0,0,1-3.449,1.818Zm.321-1.826a3.184,3.184,0,0,0,2.219-.916,2.885,2.885,0,0,0,1-2.185,3.854,3.854,0,0,0-2.511-.7,3.227,3.227,0,0,0-2.164.63,1.9,1.9,0,0,0-.728,1.478,1.43,1.43,0,0,0,.669,1.24,2.621,2.621,0,0,0,1.51.457Zm10.9,1.826a4.662,4.662,0,0,1-2.9-.87,5.138,5.138,0,0,1-1.673-2.175l1.757-.739a2.905,2.905,0,0,0,2.845,2,2.572,2.572,0,0,0,1.507-.413A1.271,1.271,0,0,0,129.5,29.6q0-1.043-1.436-1.414l-2.12-.522a5.019,5.019,0,0,1-1.906-.989,2.392,2.392,0,0,1-.9-1.967,2.7,2.7,0,0,1,1.232-2.294,4.894,4.894,0,0,1,2.924-.88,4.818,4.818,0,0,1,2.484.644,3.6,3.6,0,0,1,1.563,1.838l-1.712.71a2.321,2.321,0,0,0-2.4-1.414,2.768,2.768,0,0,0-1.478.37,1.128,1.128,0,0,0-.6,1q0,.914,1.392,1.24l2.077.5a3.872,3.872,0,0,1,2.186,1.189,2.915,2.915,0,0,1,.706,1.913,2.981,2.981,0,0,1-1.157,2.392,4.5,4.5,0,0,1-2.977.962Zm10.6,0a5.024,5.024,0,0,1-3.866-1.609,5.764,5.764,0,0,1-1.489-4.067,5.92,5.92,0,0,1,1.446-4,4.664,4.664,0,0,1,3.7-1.667,4.792,4.792,0,0,1,3.739,1.544,5.953,5.953,0,0,1,1.4,4.132l-.022.37h-8.3a3.657,3.657,0,0,0,1.061,2.548,3.191,3.191,0,0,0,2.286.931,2.825,2.825,0,0,0,2.87-1.826l1.757.739a4.762,4.762,0,0,1-1.692,2.076,4.906,4.906,0,0,1-2.894.829Zm2.828-6.966a2.849,2.849,0,0,0-.825-1.74,2.879,2.879,0,0,0-2.261-.809,2.8,2.8,0,0,0-1.9.7,3.565,3.565,0,0,0-1.1,1.869Z" transform="translate(-37.361 -9.34)" fill="#fff"/>
                <path id="icon" d="M.713,19.475,3.652.573A.674.674,0,0,1,4.913.358l3.16,5.93Zm20.868,4.587-2.8-17.4A.673.673,0,0,0,17.643,6.3L0,24.062l9.762,5.5a2.015,2.015,0,0,0,1.973,0ZM13.649,8.881,11.388,4.555a.673.673,0,0,0-1.194,0L.266,22.347Z" transform="translate(0 0)" fill="#fff"/>
              </g>
            </g>
          </g>
        </g>
      </g>
    </g>
  </g>
</svg>
