<svg xmlns="http://www.w3.org/2000/svg" width="164" height="81" viewBox="0 0 164 81">
  <g id="Group_24" data-name="Group 24" transform="translate(-7586 -566)">
    <rect id="Rectangle_7" data-name="Rectangle 7" width="164" height="81" transform="translate(7586 566)" fill="none"/>
    <g id="Group_23" data-name="Group 23" transform="translate(35.652 -85.865)">
      <path id="path0" d="M62.794,63.709c-.028.073-.154.093-.585.093-.447,0-.549.017-.549.093s-.083.093-.372.093c-.274,0-.382.024-.408.093s-.12.093-.282.093c-.194,0-.253.026-.278.124s-.084.123-.3.123c-.2,0-.271.025-.271.093s-.065.093-.216.093-.216.028-.216.093-.062.093-.185.093-.185.031-.185.093a.093.093,0,0,1-.093.093.093.093,0,0,0-.093.093c0,.058-.059.093-.156.093a.213.213,0,0,0-.192.093.147.147,0,0,1-.122.093.09.09,0,0,0-.086.093.093.093,0,0,1-.093.093.093.093,0,0,0-.093.093.093.093,0,0,1-.093.093c-.065,0-.093.065-.093.216,0,.175-.023.216-.123.216s-.124.041-.124.179c0,.1-.04.194-.093.214-.081.031-.093.875-.093,7.077v7.041h4.446V74.73c0-5.228.011-5.927.093-5.927.061,0,.093-.061.093-.181,0-.15.031-.187.185-.221.1-.022.185-.08.185-.128a.091.091,0,0,1,.093-.088.093.093,0,0,0,.093-.093c0-.062.062-.093.185-.093s.185-.031.185-.093.072-.093.28-.093c.192,0,.291-.029.315-.093s.14-.093.463-.093.436-.023.463-.093.243-.093,1.387-.093c1.161,0,1.352.013,1.352.093s.082.093.37.093.37.021.37.093.072.093.278.093.278.024.278.093.065.093.216.093.216.028.216.093a.093.093,0,0,0,.093.093.094.094,0,0,1,.093.095.152.152,0,0,0,.093.13.146.146,0,0,1,.093.121.09.09,0,0,0,.093.086c.071,0,.093.079.093.342,0,.247.026.351.093.377s.093.72.093,5.679v5.643h4.384V73.866c0-6-.011-6.792-.093-6.792s-.093-.082-.093-.37-.021-.37-.093-.37-.093-.062-.093-.187c0-.11-.038-.2-.093-.223a.146.146,0,0,1-.093-.121.09.09,0,0,0-.093-.086.093.093,0,0,1-.093-.093.093.093,0,0,0-.093-.093.093.093,0,0,1-.093-.093.093.093,0,0,0-.093-.093.093.093,0,0,1-.093-.093.09.09,0,0,0-.086-.093.146.146,0,0,1-.122-.093c-.021-.054-.113-.093-.223-.093-.125,0-.187-.031-.187-.093a.093.093,0,0,0-.093-.093.093.093,0,0,1-.093-.093c0-.069-.072-.093-.278-.093s-.278-.024-.278-.093-.062-.093-.185-.093-.185-.032-.185-.086c0-.107-.134-.161-.4-.161-.125,0-.219-.036-.24-.093s-.13-.093-.37-.093-.345-.026-.37-.093-.154-.093-.587-.093-.559-.02-.587-.093-.415-.093-2.941-.093-2.911.012-2.941.093m19.181,0c0,.076-.106.093-.587.093-.459,0-.587.019-.587.086s-.118.093-.443.111c-.271.015-.453.054-.468.1s-.12.074-.236.074a.41.41,0,0,0-.317.124.411.411,0,0,1-.277.123c-.111,0-.172.033-.172.093s-.062.093-.185.093-.185.031-.185.093-.062.093-.185.093-.185.031-.185.093a.093.093,0,0,1-.093.093.093.093,0,0,0-.093.093q0,.093-.185.093t-.185.093a.088.088,0,0,1-.081.093c-.1,0-.351.33-.351.461a.094.094,0,0,1-.093.095c-.052,0-.093.055-.093.124s-.041.124-.093.124-.093.062-.093.185-.031.185-.093.185c-.08,0-.093.264-.093,2.007s.012,2.007.093,2.007q.093,0,.093.185c0,.124.031.185.093.185s.093.059.093.156a.213.213,0,0,0,.093.192.146.146,0,0,1,.093.122.09.09,0,0,0,.093.086.093.093,0,0,1,.093.093.093.093,0,0,0,.093.093.093.093,0,0,1,.093.093.087.087,0,0,0,.079.093.342.342,0,0,1,.185.124.361.361,0,0,0,.23.124c.069,0,.124.041.124.093s.062.093.185.093.185.031.185.093a.09.09,0,0,0,.086.093.146.146,0,0,1,.122.093c.023.06.119.093.278.093s.255.032.278.093.124.093.315.093c.208,0,.28.024.28.093s.071.093.271.093c.184,0,.283.03.307.093s.14.093.463.093.436.023.463.093.134.093.408.093c.29,0,.373.021.373.093s.092.093.456.093c.4,0,.46.014.488.123s.084.124.4.124c.272,0,.379.025.405.093s.13.093.37.093.345.026.37.093.133.093.4.093.375.025.4.093.141.093.47.093c.345,0,.434.019.434.093s.076.093.309.093.309.023.309.093.062.093.185.093.185.031.185.093.061.093.179.093c.1,0,.194.04.214.093a.214.214,0,0,0,.192.093c.1,0,.157.035.157.093a.093.093,0,0,0,.093.093.093.093,0,0,1,.093.093.093.093,0,0,0,.093.093.094.094,0,0,1,.093.095.152.152,0,0,0,.093.13c.073.028.093.153.093.578s-.02.55-.093.578a.152.152,0,0,0-.093.13.094.094,0,0,1-.093.094.093.093,0,0,0-.093.093q0,.093-.185.093t-.185.093q0,.093-.185.093c-.124,0-.185.031-.185.093s-.072.093-.278.093-.278.024-.278.093-.137.093-.865.093-.865.015-.865.093-.086.093-.4.093-.4-.02-.4-.093-.127-.093-.772-.093-.772-.015-.772-.093-.083-.093-.37-.093-.37-.021-.37-.093-.062-.093-.185-.093-.185-.031-.185-.093-.055-.093-.124-.093-.124-.041-.124-.093a.093.093,0,0,0-.093-.093c-.052,0-.093-.055-.093-.124s-.041-.123-.093-.123-.093-.062-.093-.185-.031-.185-.093-.185-.093-.093-.093-.463v-.463H76.6v1.235c0,1.057.013,1.235.093,1.235s.093.069.093.249c0,.164.032.261.093.284a.147.147,0,0,1,.093.122.09.09,0,0,0,.093.086.093.093,0,0,1,.093.093.093.093,0,0,0,.093.093c.052,0,.093.055.093.124s.035.125.077.126a.541.541,0,0,1,.229.185.525.525,0,0,0,.225.182.14.14,0,0,1,.109.093.213.213,0,0,0,.192.093c.1,0,.156.035.156.093s.062.093.185.093.185.031.185.093.061.093.179.093c.1,0,.194.04.214.093s.124.093.315.093c.208,0,.28.024.28.093s.082.093.37.093.37.021.37.093.093.093.463.093.463.019.463.093.151.093.988.093c.947,0,.988.005.988.124s.041.123,1.488.123,1.489,0,1.52-.123.084-.124.982-.124c.8,0,.95-.014.95-.093s.1-.093.494-.093.494-.018.494-.093.083-.093.37-.093.37-.021.37-.093.072-.093.278-.093.278-.024.278-.093.062-.093.187-.093c.109,0,.2-.039.223-.093s.112-.093.214-.093c.118,0,.179-.032.179-.093s.062-.093.185-.093.185-.031.185-.093a.093.093,0,0,1,.093-.093.09.09,0,0,0,.093-.088c0-.048.083-.106.185-.128s.185-.08.185-.128a.091.091,0,0,1,.093-.088q.093,0,.093-.185c0-.124.031-.185.093-.185a.09.09,0,0,0,.093-.086c0-.047.056-.1.124-.118a.169.169,0,0,0,.124-.187c0-.085.034-.166.075-.18s.084-.2.1-.5c.018-.352.046-.474.11-.474a5.156,5.156,0,0,0-.007-2.015c-.071-.027-.093-.144-.093-.494s-.022-.467-.093-.494-.093-.12-.093-.282c0-.194-.026-.253-.124-.278s-.124-.084-.124-.212c0-.1-.04-.2-.093-.216a.146.146,0,0,1-.093-.121A.09.09,0,0,0,92.378,73a.093.093,0,0,1-.093-.093.093.093,0,0,0-.093-.093.093.093,0,0,1-.093-.093.093.093,0,0,0-.093-.093.093.093,0,0,1-.093-.093.093.093,0,0,0-.093-.093.093.093,0,0,1-.093-.093.09.09,0,0,0-.086-.093.147.147,0,0,1-.122-.093.2.2,0,0,0-.185-.093.206.206,0,0,1-.185-.093c-.021-.054-.113-.093-.223-.093-.125,0-.187-.03-.187-.093s-.072-.093-.278-.093c-.237,0-.278-.018-.278-.124s-.042-.124-.263-.125a.782.782,0,0,1-.382-.093,1,1,0,0,0-.509-.091c-.305,0-.39-.02-.39-.093s-.081-.093-.364-.093c-.267,0-.373-.025-.4-.093s-.133-.093-.4-.093-.375-.025-.4-.093-.141-.093-.47-.093c-.345,0-.434-.019-.434-.093s-.086-.093-.4-.093-.4-.02-.4-.093-.081-.093-.364-.093c-.266,0-.373-.025-.4-.093s-.134-.093-.408-.093c-.29,0-.372-.021-.372-.093s-.093-.093-.463-.093-.463-.018-.463-.093-.069-.093-.247-.093a.5.5,0,0,1-.37-.124.49.49,0,0,0-.3-.123c-.1,0-.194-.04-.214-.093a.152.152,0,0,0-.13-.093.094.094,0,0,1-.095-.093c0-.051-.028-.093-.062-.093a.583.583,0,0,1-.309-.309c0-.034-.042-.062-.093-.062-.073,0-.093-.086-.093-.4s.02-.4.093-.4.093-.062.093-.185.031-.185.093-.185a.093.093,0,0,0,.093-.093c0-.062.062-.093.185-.093s.185-.031.185-.093.062-.093.187-.093c.11,0,.2-.039.223-.093s.112-.093.214-.093c.117,0,.179-.032.179-.093s.089-.093.434-.093c.329,0,.443-.022.469-.093s.252-.093,1.474-.093,1.443.014,1.473.093.133.093.4.093.375.025.4.093.12.093.284.093c.18,0,.249.026.249.093a.093.093,0,0,0,.093.093.093.093,0,0,1,.093.093c0,.051.028.093.062.093a.583.583,0,0,1,.309.309c0,.034.042.062.093.062a.109.109,0,0,1,.093.119.339.339,0,0,0,.089.208.713.713,0,0,1,.108.36l.019.271,2.3.016,2.3.016V68.06c0-.6-.018-.75-.093-.779s-.093-.133-.093-.4c0-.282-.021-.364-.093-.364s-.093-.062-.093-.185c0-.144-.028-.185-.124-.185s-.124-.041-.124-.216c0-.151-.028-.216-.093-.216a.093.093,0,0,1-.093-.093.093.093,0,0,0-.093-.093.093.093,0,0,1-.093-.093.093.093,0,0,0-.093-.093.093.093,0,0,1-.093-.093.09.09,0,0,0-.086-.093.147.147,0,0,1-.122-.093.213.213,0,0,0-.192-.093c-.1,0-.156-.035-.156-.093s-.062-.093-.185-.093-.185-.031-.185-.093-.065-.093-.216-.093-.216-.028-.216-.093-.072-.093-.278-.093c-.237,0-.278-.018-.278-.123s-.041-.124-.271-.124c-.184,0-.283-.03-.307-.093s-.134-.093-.408-.093c-.29,0-.372-.021-.372-.093s-.1-.093-.548-.093c-.412,0-.567-.023-.625-.093s-.464-.093-2.879-.093c-2.45,0-2.8.012-2.8.093m27.6,0c0,.076-.109.093-.61.093-.467,0-.628.022-.687.093s-.189.093-.411.093c-.24,0-.344.026-.369.093s-.119.093-.275.093c-.173,0-.261.035-.317.124s-.144.123-.311.123c-.151,0-.247.033-.27.093s-.112.093-.214.093c-.118,0-.179.032-.179.093s-.062.093-.185.093-.185.031-.185.093a.093.093,0,0,1-.093.093.093.093,0,0,0-.093.093c0,.052-.055.093-.124.093s-.124.041-.124.093-.057.093-.143.093c-.151,0-.413.292-.413.461a.094.094,0,0,1-.093.095c-.052,0-.093.055-.093.124s-.041.124-.093.124c-.069,0-.093.072-.093.278s-.024.278-.093.278-.093.158-.093,1.05V68.8H108.4v-.4c0-.315.02-.4.093-.4s.093-.062.093-.185.031-.185.093-.185a.093.093,0,0,0,.093-.093.093.093,0,0,1,.093-.093.093.093,0,0,0,.093-.093c0-.062.062-.093.187-.093.109,0,.2-.039.223-.093s.113-.093.214-.093c.118,0,.179-.032.179-.093s.082-.093.37-.093.37-.021.37-.093.134-.093.835-.093c.686,0,.842-.016.871-.093.021-.053.113-.093.219-.093a.448.448,0,0,1,.275.093c.073.073.264.093.891.093.668,0,.8.015.8.093s.072.093.278.093.278.024.278.093.062.093.185.093.185.031.185.093.062.093.185.093.185.031.185.093a.093.093,0,0,0,.093.093.093.093,0,0,1,.093.093.093.093,0,0,0,.093.093c.061,0,.093.061.093.18,0,.243.057.376.161.376.156,0,.12.965-.037,1.006a.168.168,0,0,0-.124.186.21.21,0,0,1-.093.189.153.153,0,0,0-.093.13.094.094,0,0,1-.093.095.093.093,0,0,0-.093.093c0,.058-.059.093-.156.093a.213.213,0,0,0-.192.093c-.02.053-.113.093-.214.093-.118,0-.179.032-.179.093s-.072.093-.278.093-.278.024-.278.093-.1.093-.557.093c-.439,0-.565.02-.593.093s-.38.093-2.623.093h-2.588l.016,1.621.016,1.621,3.165.016c2.756.014,3.164.028,3.164.108s.073.092.278.092.278.024.278.093.062.093.185.093.185.031.185.093.062.093.185.093.185.031.185.093a.093.093,0,0,0,.093.093.093.093,0,0,1,.093.093.093.093,0,0,0,.093.093c.061,0,.093.061.093.18,0,.242.057.375.161.375.156,0,.12.965-.037,1.006a.167.167,0,0,0-.124.177c0,.147-.372.608-.491.608-.036,0-.065.042-.065.093s-.062.093-.185.093-.185.031-.185.093-.072.093-.278.093-.278.024-.278.093-.086.093-.4.093-.4.02-.4.093-.188.093-1.321.093c-1.117,0-1.326-.014-1.356-.093s-.144-.093-.5-.093c-.372,0-.465-.018-.465-.093s-.072-.093-.278-.093-.278-.024-.278-.093-.065-.093-.216-.093-.216-.028-.216-.093a.093.093,0,0,0-.093-.093.093.093,0,0,1-.093-.093.093.093,0,0,0-.093-.093.094.094,0,0,1-.093-.094.152.152,0,0,0-.093-.13c-.053-.021-.093-.113-.093-.214,0-.118-.032-.179-.093-.179s-.093-.082-.093-.37v-.37h-4.384v1.05c0,.892.014,1.05.093,1.05s.093.072.093.278.024.278.093.278.093.062.093.185.031.185.093.185a.093.093,0,0,1,.093.093.093.093,0,0,0,.093.093.088.088,0,0,1,.094.077.69.69,0,0,0,.356.355c.034,0,.078.042.1.093a.213.213,0,0,0,.192.093c.1,0,.156.035.156.093a.09.09,0,0,0,.086.093.147.147,0,0,1,.122.093c.023.061.12.093.284.093.18,0,.249.026.249.093s.061.093.179.093c.1,0,.194.04.214.093s.124.093.315.093c.207,0,.28.024.28.093s.071.093.271.093c.184,0,.283.03.307.093s.154.093.593.093c.455,0,.558.017.558.093s.2.093,1.413.093c1.361,0,1.414,0,1.445.124s.084.123.445.123.417-.015.445-.123.084-.124,1.476-.124c1.242,0,1.444-.013,1.444-.093s.1-.093.494-.093.494-.018.494-.093.082-.093.37-.093.37-.021.37-.093.072-.093.278-.093.278-.024.278-.093.062-.093.187-.093c.11,0,.2-.039.223-.093s.112-.093.214-.093c.117,0,.179-.032.179-.093s.062-.093.185-.093.185-.031.185-.093a.093.093,0,0,1,.093-.093.09.09,0,0,0,.093-.088c0-.048.083-.106.185-.128s.185-.08.185-.128a.091.091,0,0,1,.093-.088.093.093,0,0,0,.093-.093.093.093,0,0,1,.093-.093q.093,0,.093-.185c0-.144.028-.185.124-.185s.123-.041.123-.185q0-.185.093-.185c.069,0,.093-.072.093-.28,0-.192.029-.291.093-.315.079-.03.093-.291.093-1.82,0-1.545-.012-1.784-.093-1.784-.062,0-.093-.062-.093-.185s-.031-.185-.093-.185-.093-.058-.093-.154a.3.3,0,0,0-.123-.231.249.249,0,0,1-.124-.155.086.086,0,0,0-.093-.078.093.093,0,0,1-.093-.093.093.093,0,0,0-.093-.093.093.093,0,0,1-.093-.093.093.093,0,0,0-.093-.093.093.093,0,0,1-.093-.093.09.09,0,0,0-.088-.093.126.126,0,0,1-.113-.077c-.042-.126.023-.293.115-.293.047,0,.086-.056.086-.124s.041-.124.093-.124a.093.093,0,0,0,.093-.093.093.093,0,0,1,.093-.093.093.093,0,0,0,.093-.093.093.093,0,0,1,.093-.093.093.093,0,0,0,.093-.093c0-.052.055-.093.124-.093.095,0,.123-.041.123-.179,0-.1.04-.194.093-.214s.093-.12.093-.286.031-.263.093-.287c.079-.03.093-.27.093-1.634,0-1.38-.013-1.6-.093-1.6s-.093-.079-.093-.342c0-.247-.026-.351-.093-.377a.2.2,0,0,1-.093-.183.3.3,0,0,0-.123-.225.249.249,0,0,1-.124-.155.086.086,0,0,0-.093-.078.093.093,0,0,1-.093-.093.093.093,0,0,0-.093-.093.093.093,0,0,1-.093-.093.093.093,0,0,0-.093-.093.093.093,0,0,1-.093-.093.09.09,0,0,0-.086-.093.146.146,0,0,1-.122-.093.213.213,0,0,0-.192-.093c-.1,0-.156-.035-.156-.093s-.062-.093-.185-.093-.185-.031-.185-.093-.065-.093-.216-.093-.216-.028-.216-.093-.072-.093-.278-.093c-.237,0-.278-.018-.278-.123s-.041-.124-.271-.124c-.184,0-.283-.03-.307-.093s-.134-.093-.408-.093c-.29,0-.373-.021-.373-.093s-.112-.093-.642-.093c-.513,0-.649-.019-.677-.093s-.388-.093-2.693-.093c-2.321,0-2.657.012-2.657.093M95.951,70.624a.184.184,0,0,1-.166.093.59.59,0,0,0-.412.435.163.163,0,0,1-.093.143c-.077.029-.093.2-.093.964,0,.784.015.928.093.928.058,0,.093.059.093.156a.213.213,0,0,0,.093.192.145.145,0,0,1,.093.12c0,.047.077.1.17.127a.483.483,0,0,1,.232.126,66.231,66.231,0,0,0,6.869-.027.125.125,0,0,1,.113-.077c.048,0,.087-.056.087-.124s.041-.123.093-.123a.093.093,0,0,0,.093-.093.093.093,0,0,1,.093-.093c.079,0,.093-.165.093-1.113,0-.933-.015-1.119-.093-1.149a.146.146,0,0,1-.093-.121.09.09,0,0,0-.093-.086.093.093,0,0,1-.093-.093q0-.093-.185-.093t-.185-.093c0-.081-.412-.093-3.336-.093-2.909,0-3.341.012-3.372.093M53.038,84.64c-.02.053-.112.093-.214.093-.117,0-.179.032-.179.093s-.062.093-.185.093-.185.031-.185.093-.055.093-.123.093-.124.041-.124.093a.093.093,0,0,1-.093.093.093.093,0,0,0-.093.093.093.093,0,0,1-.093.093.09.09,0,0,0-.093.086.146.146,0,0,1-.093.122.2.2,0,0,0-.093.185.206.206,0,0,1-.093.185c-.054.021-.093.113-.093.223,0,.125-.03.187-.093.187-.08,0-.093.189-.093,1.328s.013,1.328.093,1.328.093.072.093.278.024.278.093.278a.093.093,0,0,1,.093.093.093.093,0,0,0,.093.093c.057,0,.093.058.093.151,0,.153.239.466.356.466.035,0,.079.042.1.093a.213.213,0,0,0,.192.093c.1,0,.156.035.156.093s.062.093.185.093.185.031.185.093c0,.079.178.093,1.235.093s1.235-.013,1.235-.093q0-.093.185-.093c.123,0,.185-.031.185-.093s.059-.093.157-.093a.214.214,0,0,0,.192-.093.139.139,0,0,1,.11-.093c.106,0,.345-.341.345-.492,0-.071.04-.126.093-.126a.093.093,0,0,0,.093-.093.093.093,0,0,1,.093-.093c.069,0,.093-.072.093-.278s.024-.278.093-.278.093-.189.093-1.328-.013-1.328-.093-1.328c-.062,0-.093-.062-.093-.187,0-.109-.038-.2-.093-.223a.19.19,0,0,1-.093-.171.489.489,0,0,0-.183-.287.544.544,0,0,1-.185-.229c0-.042-.058-.077-.126-.077s-.124-.041-.124-.093a.093.093,0,0,0-.093-.093.093.093,0,0,1-.093-.093q0-.093-.185-.093t-.185-.093c0-.061-.061-.093-.179-.093-.1,0-.194-.04-.214-.093-.029-.077-.2-.093-1.027-.093s-1,.016-1.028.093m20.478,0c0,.069-.072.093-.278.093s-.278.024-.278.093a.093.093,0,0,1-.093.093.093.093,0,0,0-.093.093.093.093,0,0,1-.093.093.093.093,0,0,0-.093.093.093.093,0,0,1-.093.093c-.051,0-.093.028-.093.062a.423.423,0,0,1-.124.185c-.207.207-.173,1.852.038,1.852a.09.09,0,0,1,.086.093.093.093,0,0,0,.093.093.093.093,0,0,1,.093.093c0,.062.062.093.185.093s.185.031.185.093.072.093.278.093.278.024.278.093.086.093.4.093c.36,0,.4.013.4.124s.041.124.364.124c.267,0,.373.025.4.093a.2.2,0,0,0,.185.093.206.206,0,0,1,.185.093.213.213,0,0,0,.192.093c.127,0,.156.03.156.16,0,.108.04.171.123.192.068.018.124.067.124.111s-.056.093-.124.11c-.09.024-.123.084-.123.223s-.03.191-.093.191a.093.093,0,0,0-.093.093q0,.093-.185.093t-.185.093c0,.076-.106.093-.587.093s-.587-.017-.587-.093-.062-.093-.185-.093-.185-.031-.185-.093a.093.093,0,0,0-.093-.093.093.093,0,0,1-.093-.093.093.093,0,0,0-.093-.093c-.052,0-.093-.055-.093-.123s-.041-.124-.093-.124c-.069,0-.093-.072-.093-.278v-.278H71.971v.527c0,.411.02.535.093.562a.171.171,0,0,1,.093.153.357.357,0,0,0,.123.223.341.341,0,0,1,.124.185.087.087,0,0,0,.093.079.093.093,0,0,1,.093.093c0,.062.062.093.185.093s.185.031.185.093.062.093.185.093.185.031.185.093c0,.079.185.093,1.3.093,1.1,0,1.3-.014,1.334-.093.02-.053.112-.093.214-.093.118,0,.179-.032.179-.093a.094.094,0,0,1,.095-.093.152.152,0,0,0,.13-.093.146.146,0,0,1,.121-.093.086.086,0,0,0,.086-.086.146.146,0,0,1,.093-.121c.053-.021.093-.113.093-.216s.039-.2.093-.216c.074-.028.093-.161.093-.655,0-.509-.016-.62-.093-.62s-.093-.062-.093-.185-.031-.185-.093-.185a.093.093,0,0,1-.093-.093.093.093,0,0,0-.093-.093.088.088,0,0,1-.094-.077c0-.133-.287-.355-.455-.355-.1,0-.161-.034-.161-.093s-.071-.093-.271-.093c-.184,0-.283-.03-.307-.093s-.14-.093-.463-.093-.436-.023-.463-.093-.124-.093-.315-.093c-.207,0-.28-.024-.28-.093s-.062-.093-.185-.093-.185-.031-.185-.093a.093.093,0,0,0-.093-.093c-.07,0-.093-.075-.093-.309s.022-.309.093-.309a.093.093,0,0,0,.093-.093.093.093,0,0,1,.093-.093.093.093,0,0,0,.093-.093c0-.077.116-.093.673-.093.541,0,.68.018.708.093a.213.213,0,0,0,.192.093c.1,0,.156.035.156.093a.093.093,0,0,0,.093.093c.069,0,.093.072.093.28,0,.192.029.291.093.315a.149.149,0,0,1,.093.124c0,.072.109.085.571.07l.571-.018.019-.232c.014-.166-.008-.243-.077-.269s-.1-.124-.1-.362c0-.214-.032-.352-.093-.4a.255.255,0,0,1-.093-.162.09.09,0,0,0-.093-.085.093.093,0,0,1-.093-.093c0-.052-.055-.093-.124-.093s-.123-.041-.123-.093a.093.093,0,0,0-.093-.093.093.093,0,0,1-.093-.093c0-.069-.072-.093-.278-.093s-.278-.024-.278-.093-.148-.093-.957-.093-.957.014-.957.093m37.233,0c0,.07-.075.093-.309.093s-.309.023-.309.093a.093.093,0,0,1-.093.093.093.093,0,0,0-.093.093c0,.058-.058.093-.156.093a.214.214,0,0,0-.192.093.146.146,0,0,1-.121.093.086.086,0,0,0-.086.086.146.146,0,0,1-.093.121.214.214,0,0,0-.093.192c0,.1-.035.156-.093.156s-.093.065-.093.216c0,.175-.023.216-.124.216s-.123.041-.123.271c0,.184-.03.283-.093.307s-.093.192-.093.935.016.905.093.935c.059.022.093.118.094.26,0,.316.061.5.161.5.054,0,.086.069.086.185s.031.185.093.185.093.055.093.123.041.124.093.124a.093.093,0,0,1,.093.093.093.093,0,0,0,.093.093.093.093,0,0,1,.093.093.093.093,0,0,0,.093.093.093.093,0,0,1,.093.093.09.09,0,0,0,.086.093.146.146,0,0,1,.121.093c.021.054.113.093.223.093.125,0,.187.031.187.093,0,.079.185.093,1.3.093s1.3-.013,1.3-.093c0-.062.062-.093.187-.093.109,0,.2-.039.223-.093a.147.147,0,0,1,.122-.093.09.09,0,0,0,.086-.093.093.093,0,0,1,.093-.093.093.093,0,0,0,.093-.093.093.093,0,0,1,.093-.093.093.093,0,0,0,.093-.093.093.093,0,0,1,.093-.093c.052,0,.093-.055.093-.124s.041-.123.093-.123.093-.062.093-.185.031-.185.093-.185.093-.069.093-.247a.5.5,0,0,1,.124-.37c.113-.113.123-.206.123-1.055,0-.88-.007-.934-.123-.964-.1-.026-.124-.084-.124-.3,0-.2-.024-.271-.093-.271s-.093-.065-.093-.216-.028-.216-.093-.216-.093-.058-.093-.156a.214.214,0,0,0-.093-.192.146.146,0,0,1-.093-.121.09.09,0,0,0-.093-.086.093.093,0,0,1-.093-.093.09.09,0,0,0-.086-.093.146.146,0,0,1-.121-.093.206.206,0,0,0-.185-.093.206.206,0,0,1-.185-.093c-.024-.064-.124-.093-.315-.093-.208,0-.28-.024-.28-.093s-.144-.093-.926-.093-.926.014-.926.093M26.773,87.882v3.149h1.111V89.024c0-1.693.014-2.007.088-2.007.048,0,.106.083.128.185s.066.185.1.185.057.042.057.093.055.093.124.093c.1,0,.124.041.124.185q0,.185.093.185a.093.093,0,0,1,.093.093.093.093,0,0,0,.093.093c.062,0,.093.062.093.187,0,.109.038.2.093.223a.146.146,0,0,1,.093.122.09.09,0,0,0,.093.086c.062,0,.093.062.093.185s.031.185.093.185a.093.093,0,0,1,.093.093.093.093,0,0,0,.093.093c.062,0,.093.062.093.185s.031.185.093.185a.093.093,0,0,1,.093.093.093.093,0,0,0,.093.093c.062,0,.093.062.093.191s.033.2.123.223c.068.018.124.071.124.118a.09.09,0,0,0,.093.086q.093,0,.093.185t.093.185a.093.093,0,0,1,.093.093c0,.076.113.093.648.093H31.9v-6.3H30.787v2.128c0,1.826-.013,2.124-.089,2.094a.326.326,0,0,1-.128-.214c-.022-.1-.079-.18-.127-.18a.09.09,0,0,1-.088-.093.093.093,0,0,0-.093-.093q-.093,0-.093-.185c0-.124-.031-.185-.093-.185s-.093-.055-.093-.124-.041-.124-.093-.124-.093-.062-.093-.185-.031-.185-.093-.185a.093.093,0,0,1-.093-.093.093.093,0,0,0-.093-.093q-.093,0-.093-.185t-.093-.185a.093.093,0,0,1-.093-.093.093.093,0,0,0-.093-.093c-.058,0-.093-.059-.093-.156a.213.213,0,0,0-.093-.192.171.171,0,0,1-.093-.153.355.355,0,0,0-.124-.223.341.341,0,0,1-.124-.185.087.087,0,0,0-.093-.079c-.058,0-.093-.059-.093-.156a.213.213,0,0,0-.093-.192.147.147,0,0,1-.093-.122.09.09,0,0,0-.093-.086c-.062,0-.093-.062-.093-.185v-.185h-1.3v3.149m6.113,0v3.149h4.569V89.92H34.244V88.378l1.5-.017,1.5-.016.018-.571.018-.571h-3.03V85.659h3.211v-.926H32.886v3.149M37.7,85.2v.463h1.914v5.372h1.3V85.659h.953c.855,0,.955-.011.981-.108s.029-.1.035,0a.11.11,0,0,0,.1.108c.072,0,.093.081.093.364,0,.267.025.373.093.4s.093.124.093.315c0,.207.024.28.093.28s.093.082.093.37.021.37.093.37.093.083.093.372c0,.274.024.382.093.408s.093.133.093.4c0,.282.021.364.093.364s.093.083.093.372c0,.274.024.382.093.408s.093.13.093.37.026.345.093.37a.147.147,0,0,1,.093.122c0,.067.126.086.587.086h.587v-.185q0-.185.093-.185c.07,0,.093-.075.093-.309s.023-.309.093-.309.093-.082.093-.37.021-.37.093-.37.093-.082.093-.37.021-.37.093-.37.093-.076.093-.309.023-.309.093-.309.093-.082.093-.37.021-.37.093-.37.095-.077.1-.293c0-.161.02-.245.035-.185a.139.139,0,0,0,.117.108c.063,0,.088.078.088.278s.024.278.093.278.093.082.093.37.021.37.093.37.093.083.093.372c0,.274.025.382.093.408s.093.123.093.307c0,.2.025.271.093.271s.093.082.093.367c0,.256.027.383.089.417s.1.174.108.389L47.86,91h1.3l.019-.263c.013-.179.047-.262.108-.262s.089-.08.089-.3.028-.313.093-.338.093-.131.093-.377c0-.262.021-.341.093-.341s.093-.082.093-.364c0-.267.025-.373.093-.4s.093-.134.093-.408c0-.29.021-.372.093-.372s.093-.072.093-.271c0-.184.03-.283.093-.307s.093-.134.093-.408c0-.29.021-.373.093-.373s.093-.081.093-.363c0-.311.018-.368.124-.4s.124-.084.124-.378v-.345H49.558v.185c0,.124-.031.185-.093.185s-.093.082-.093.364c0,.267-.025.373-.093.4s-.093.134-.093.408c0,.29-.021.372-.093.372s-.093.082-.093.37-.021.37-.093.37-.093.086-.093.4-.02.4-.093.4-.093.082-.093.37v.37l-.123-.124a.5.5,0,0,1-.124-.37c0-.178-.026-.247-.093-.247s-.093-.086-.093-.4-.02-.4-.093-.4-.093-.082-.093-.37-.021-.37-.093-.37-.093-.082-.093-.37-.021-.37-.093-.37-.093-.075-.093-.309-.023-.309-.093-.309-.093-.072-.093-.278v-.278H46.1v.179c0,.1-.04.194-.093.214s-.093.13-.093.37-.026.345-.093.37-.093.134-.093.408c0,.29-.021.372-.093.372s-.093.072-.093.271c0,.184-.03.283-.093.307s-.093.134-.093.408c0,.29-.021.373-.093.373s-.093.082-.093.37-.022.37-.089.37-.1.079-.114.2-.029.028-.035-.185c-.008-.3-.031-.386-.1-.386s-.093-.086-.093-.4-.02-.4-.093-.4-.093-.093-.093-.463-.018-.463-.093-.463-.093-.083-.093-.372c0-.274-.025-.382-.093-.408s-.093-.133-.093-.4c0-.282-.021-.364-.093-.364S44,85.042,44,84.918v-.185H37.7V85.2m20.315,2.686v3.149h1.111v-2.47h1.05c1.08,0,1.3.052,1.3.309,0,.034.042.062.093.062.076,0,.093.1.093.556s.017.556.093.556.093.1.093.494v.494h1.3v-.278c0-.206-.024-.278-.093-.278s-.093-.072-.093-.278-.024-.278-.093-.278-.093-.127-.093-.772c0-.629-.016-.772-.089-.772-.051,0-.1-.073-.108-.17-.015-.132-.061-.178-.2-.209-.1-.022-.137-.043-.077-.047a.11.11,0,0,0,.108-.1.093.093,0,0,1,.093-.093.093.093,0,0,0,.093-.093.093.093,0,0,1,.093-.093q.093,0,.093-.185t.093-.185c.077,0,.093-.127.093-.772s-.015-.772-.093-.772q-.093,0-.093-.185t-.093-.185a.093.093,0,0,1-.093-.093.093.093,0,0,0-.093-.093.093.093,0,0,1-.093-.093q0-.093-.185-.093t-.185-.093c0-.08-.264-.093-2.007-.093H58.017v3.149m5.928,0v3.149h1.111V89.889c0-1.115,0-1.142.128-1.142a.828.828,0,0,0,.372-.247c.245-.247.487-.256.487-.016a.087.087,0,0,0,.093.078c.052,0,.093.055.093.125a.6.6,0,0,0,.185.307.692.692,0,0,1,.185.245c0,.035.056.064.123.064.1,0,.124.041.124.185q0,.185.093.185a.093.093,0,0,1,.093.093.093.093,0,0,0,.093.093c.062,0,.093.062.093.185s.031.185.093.185.093.055.093.123.041.124.093.124a.093.093,0,0,1,.093.093.093.093,0,0,0,.093.093c.062,0,.093.062.093.187v.187l.756-.017L69.285,91l.019-.2c.02-.21-.179-.5-.343-.506a.087.087,0,0,1-.077-.094.093.093,0,0,0-.093-.093q-.093,0-.093-.185t-.093-.185a.094.094,0,0,1-.093-.095.153.153,0,0,0-.093-.13.146.146,0,0,1-.093-.121.09.09,0,0,0-.093-.086c-.058,0-.093-.059-.093-.156a.213.213,0,0,0-.093-.192.146.146,0,0,1-.093-.122.09.09,0,0,0-.093-.086.093.093,0,0,1-.093-.093.093.093,0,0,0-.093-.093c-.058,0-.093-.059-.093-.156a.213.213,0,0,0-.093-.192.146.146,0,0,1-.093-.122.086.086,0,0,0-.086-.086c-.047,0-.1-.056-.118-.124a.158.158,0,0,0-.131-.124c-.068,0-.1-.057-.1-.185s-.031-.185-.093-.185a.093.093,0,0,1,0-.185.093.093,0,0,0,.093-.093c0-.051.031-.093.068-.093a2.87,2.87,0,0,0,.734-.734c0-.038.042-.069.093-.069a.093.093,0,0,0,.093-.093.093.093,0,0,1,.093-.093.093.093,0,0,0,.093-.093.093.093,0,0,1,.093-.093.093.093,0,0,0,.093-.093.093.093,0,0,1,.093-.093.093.093,0,0,0,.093-.093.093.093,0,0,1,.093-.093.093.093,0,0,0,.093-.093.093.093,0,0,1,.093-.093.09.09,0,0,0,.093-.086c0-.047.055-.1.123-.118.083-.022.124-.084.124-.192v-.16h-.772c-.645,0-.772.015-.772.093a.093.093,0,0,1-.093.093.093.093,0,0,0-.093.093.093.093,0,0,1-.093.093.093.093,0,0,0-.093.093.093.093,0,0,1-.093.093.093.093,0,0,0-.093.093.093.093,0,0,1-.093.093.093.093,0,0,0-.093.093c0,.051-.031.093-.069.093a1.563,1.563,0,0,0-.548.548c0,.038-.042.069-.093.069a.093.093,0,0,0-.093.093.093.093,0,0,1-.093.093.093.093,0,0,0-.093.093.093.093,0,0,1-.093.093.093.093,0,0,0-.093.093.093.093,0,0,1-.093.093.093.093,0,0,0-.093.093.093.093,0,0,1-.093.093.093.093,0,0,0-.093.093.091.091,0,0,1-.088.093.139.139,0,0,0-.116.108,11.264,11.264,0,0,1-.036-1.235l-.007-1.343H63.944v3.149m14.016,0v3.149h1.111v-6.3H77.961v3.149m2.47,0v3.151h1.111l.01-2.022c.005-1.112.021-1.932.035-1.821s.06.2.114.2.089.077.089.278.024.278.093.278.093.072.093.28c0,.192.029.291.093.315s.093.113.093.214c0,.118.032.179.093.179s.093.072.093.278.024.278.093.278.093.069.093.249c0,.164.031.261.093.284s.093.116.093.245.029.21.089.21.1.084.108.262l.019.263.571.018.571.018v-.188c0-.125.031-.188.093-.188s.093-.065.093-.216.028-.216.093-.216.093-.072.093-.278.024-.278.093-.278.093-.072.093-.278.024-.278.093-.278.093-.061.093-.179c0-.1.04-.194.093-.214S85,88.6,85,88.409c0-.207.024-.28.093-.28s.093-.072.093-.278.024-.278.093-.278.093-.061.093-.178.036-.188.124-.21c.121-.032.123,0,.123,1.907v1.939h1.111v-6.3h-.741c-.59,0-.741.018-.741.086,0,.047-.056.1-.123.118-.1.026-.124.084-.124.278,0,.162-.032.259-.093.282s-.093.113-.093.216-.039.2-.093.216-.093.12-.093.284c0,.18-.026.249-.093.249s-.093.072-.093.278-.024.278-.093.278-.093.061-.093.179c0,.1-.04.194-.093.214s-.093.124-.093.315c0,.208-.024.28-.093.28s-.093.072-.093.278-.024.278-.093.278-.093.061-.093.179c0,.1-.04.194-.088.212a.285.285,0,0,0-.114.207c-.019.125-.029.1-.035-.091-.006-.172-.042-.277-.1-.3s-.093-.112-.093-.214c0-.118-.032-.179-.093-.179s-.093-.072-.093-.28c0-.192-.029-.291-.093-.315s-.093-.12-.093-.278-.032-.254-.093-.278-.093-.113-.093-.214c0-.118-.032-.179-.093-.179s-.093-.072-.093-.278-.024-.278-.093-.278-.093-.062-.093-.187c0-.11-.038-.2-.093-.223s-.093-.123-.093-.307-.025-.271-.089-.271-.1-.084-.108-.263l-.019-.262-.757-.017-.756-.018V87.88M87.9,87.3c0,2.237.012,2.563.093,2.563.061,0,.093.061.093.179,0,.1.04.194.093.214a.152.152,0,0,1,.093.13.091.091,0,0,0,.077.1.542.542,0,0,1,.229.185.423.423,0,0,0,.324.183c.112,0,.173.032.173.093,0,.08.189.093,1.328.093s1.328-.013,1.328-.093q0-.093.185-.093c.124,0,.185-.031.185-.093a.093.093,0,0,1,.093-.093.093.093,0,0,0,.093-.093.093.093,0,0,1,.093-.093.093.093,0,0,0,.093-.093.093.093,0,0,1,.093-.093.087.087,0,0,0,.093-.079.34.34,0,0,1,.124-.185c.093-.08.124-.182.124-.415s.022-.309.093-.309.091-.278.077-2.269l-.016-2.269-.571-.018-.571-.018v2c0,1.723-.013,2.008-.093,2.038-.06.023-.093.12-.093.278s-.032.255-.093.278-.093.113-.093.223c0,.125-.03.187-.093.187a.093.093,0,0,0-.093.093q0,.093-.185.093t-.185.093c0,.074-.1.093-.494.093S90,90.087,90,90.013s-.062-.093-.185-.093-.185-.031-.185-.093a.093.093,0,0,0-.093-.093c-.051,0-.093-.026-.093-.059a.785.785,0,0,0-.362-.374,12.035,12.035,0,0,1-.07-2.285V84.733H87.9V87.3m6.36.587v3.149h5.31v-.278c0-.206.024-.278.093-.278s.093-.062.093-.187c0-.109.039-.2.093-.223s.093-.122.093-.3c0-.212.024-.271.123-.3.083-.022.124-.084.124-.192v-.16h1.05c.892,0,1.05.014,1.05.093a.093.093,0,0,0,.093.093c.067,0,.093.069.093.249,0,.164.031.261.093.284s.093.113.093.216.04.2.093.216.093.123.093.307c0,.2.024.271.093.271a.093.093,0,0,1,.093.093c0,.076.106.093.587.093h.587v-.37c0-.288-.021-.37-.093-.37s-.093-.069-.093-.249c0-.164-.031-.261-.093-.284s-.093-.113-.093-.22c0-.132-.035-.193-.124-.217s-.123-.084-.123-.3c0-.2-.025-.271-.093-.271s-.093-.062-.093-.185-.031-.185-.093-.185-.093-.072-.093-.28c0-.192-.029-.291-.093-.315s-.093-.12-.093-.278-.032-.254-.093-.278-.093-.113-.093-.214c0-.118-.032-.179-.093-.179s-.093-.069-.093-.249c0-.164-.032-.261-.093-.284s-.093-.113-.093-.216-.04-.2-.093-.216-.093-.119-.093-.278-.032-.254-.093-.278-.093-.113-.093-.214c0-.118-.032-.179-.093-.179a.093.093,0,0,1-.093-.093c0-.077-.117-.093-.679-.093h-.679v.179c0,.1-.04.194-.093.214s-.093.12-.093.284c0,.18-.026.249-.093.249s-.093.065-.093.216-.028.216-.093.216-.093.072-.093.278-.024.278-.093.278-.093.071-.093.271c0,.219-.024.277-.124.3a.168.168,0,0,0-.123.185.336.336,0,0,1-.093.23.47.47,0,0,0-.093.316c0,.172-.026.239-.093.239s-.093.062-.093.185-.031.185-.093.185-.093.072-.093.278-.024.278-.093.278-.093.065-.093.216-.028.216-.093.216-.093.072-.093.278c0,.28-.128.394-.208.185-.03-.079-.261-.093-1.55-.093H95.373V84.733H94.262v3.149m8.953-2.686v.463h2.161v5.372h1.111V85.659H108.4v-.926h-5.187V85.2M115.5,87.882v3.149h1.173v-2.47h1.142c.974,0,1.142.014,1.142.093a.093.093,0,0,0,.093.093c.069,0,.093.072.093.278s.024.278.093.278.093.127.093.772.015.772.093.772a.093.093,0,0,1,.093.093c0,.076.106.093.586.093h.587v-.37c0-.288-.021-.37-.093-.37s-.093-.124-.093-.743c0-.6-.018-.75-.093-.778s-.093-.12-.093-.282c0-.194-.026-.253-.123-.278-.068-.018-.124-.069-.124-.113a.136.136,0,0,0-.108-.109c-.1-.027-.1-.028,0-.035a.11.11,0,0,0,.108-.1.091.091,0,0,1,.088-.093c.048,0,.106-.081.127-.18a.326.326,0,0,1,.128-.214,4.342,4.342,0,0,0,0-1.851.308.308,0,0,1-.093-.159c0-.036-.056-.066-.123-.066s-.124-.041-.124-.093a.093.093,0,0,0-.093-.093.093.093,0,0,1-.093-.093q0-.093-.185-.093c-.124,0-.185-.031-.185-.093,0-.08-.264-.093-2.007-.093H115.5v3.149m-60.758-2.13q0,.093.185.093t.185.093a.093.093,0,0,0,.093.093.093.093,0,0,1,.093.093.093.093,0,0,0,.093.093.109.109,0,0,1,.093.119.348.348,0,0,0,.093.212.32.32,0,0,1,.093.185c0,.159.072.287.161.287.069,0,.086.167.086.865,0,.823-.006.865-.124.865-.091,0-.124.041-.124.154a.449.449,0,0,1-.108.267c-.059.062-.2.215-.3.34a.774.774,0,0,1-.262.226c-.037,0-.067.042-.067.093s-.062.093-.185.093-.185.031-.185.093-.1.093-.494.093-.494-.018-.494-.093-.062-.093-.185-.093-.185-.031-.185-.093-.026-.093-.059-.093c-.08,0-.33-.241-.463-.448-.06-.093-.148-.17-.2-.17s-.086-.082-.086-.278-.024-.278-.093-.278-.093-.127-.093-.772.015-.772.093-.772c.06,0,.093-.06.093-.171a.411.411,0,0,1,.124-.277.361.361,0,0,0,.123-.23c0-.069.041-.124.093-.124a.093.093,0,0,0,.093-.093.093.093,0,0,1,.093-.093.093.093,0,0,0,.093-.093q0-.093.185-.093c.124,0,.185-.031.185-.093s.117-.093.679-.093.679.016.679.093m6.36,0c0,.062.062.093.185.093s.185.031.185.093a.093.093,0,0,0,.093.093q.093,0,.093.185t.093.185c.052,0,.093.055.093.124s-.041.123-.093.123-.093.062-.093.185-.031.185-.093.185a.093.093,0,0,0-.093.093c0,.058-.059.093-.157.093a.214.214,0,0,0-.192.093c-.029.077-.2.093-1.017.093h-.981V85.659h.988c.837,0,.988.014.988.093m51.311,0c0,.052.055.093.123.093s.124.041.124.093a.093.093,0,0,0,.093.093.093.093,0,0,1,.093.093.093.093,0,0,0,.093.093.094.094,0,0,1,.093.095.152.152,0,0,0,.093.13.205.205,0,0,1,.093.185.205.205,0,0,0,.093.185c.063.024.093.123.093.307,0,.2.024.271.093.271s.093.1.093.494-.018.494-.093.494-.093.072-.093.278-.024.278-.093.278-.093.062-.093.185-.031.185-.093.185a.093.093,0,0,0-.093.093.093.093,0,0,1-.093.093c-.052,0-.093.055-.093.123s-.041.124-.093.124a.093.093,0,0,0-.093.093c0,.065-.065.093-.216.093s-.216.028-.216.093-.1.093-.494.093-.494-.018-.494-.093-.072-.093-.278-.093-.278-.024-.278-.093a.093.093,0,0,0-.093-.093c-.052,0-.093-.055-.093-.124s-.041-.123-.093-.123a.093.093,0,0,1-.093-.093.093.093,0,0,0-.093-.093q-.093,0-.093-.185t-.093-.185c-.071,0-.093-.079-.093-.342,0-.247-.026-.351-.093-.377s-.093-.137-.093-.43c0-.31.02-.395.093-.395s.093-.071.093-.271c0-.184.03-.283.093-.307a.206.206,0,0,0,.093-.185.205.205,0,0,1,.093-.185.152.152,0,0,0,.093-.13.094.094,0,0,1,.093-.095.093.093,0,0,0,.093-.093.093.093,0,0,1,.093-.093.093.093,0,0,0,.093-.093.093.093,0,0,1,.093-.093.093.093,0,0,0,.093-.093c0-.077.127-.093.772-.093s.772.015.772.093m6.36,0c0,.062.062.093.185.093s.185.031.185.093a.093.093,0,0,0,.093.093c.074,0,.093.1.093.494s-.018.494-.093.494a.093.093,0,0,0-.093.093c0,.058-.059.093-.156.093a.214.214,0,0,0-.192.093c-.03.077-.208.093-1.079.093h-1.043V85.659h1.05c.892,0,1.05.014,1.05.093m-17.353.9c.035,0,.064.114.064.253,0,.2.025.259.124.285s.124.084.124.3c0,.2.024.271.093.271s.093.065.093.216v.216h-.679c-.638,0-.679-.008-.679-.124,0-.069.041-.123.093-.123.069,0,.093-.072.093-.278s.024-.278.093-.278.093-.061.093-.179c0-.1.04-.194.093-.214s.093-.12.093-.279c0-.261.124-.375.2-.183.024.063.073.114.108.114" transform="translate(7559.008 614.249)" fill="#fff" fill-rule="evenodd"/>
      <path id="path1" d="M50.117,63.709q0,.093-.185.093t-.185.093a.093.093,0,0,1-.093.093.093.093,0,0,0-.093.093.093.093,0,0,1-.093.093c-.051,0-.093.055-.093.124s-.041.123-.093.123-.093.062-.093.185c0,.144-.028.185-.124.185-.123,0-.124.041-.124,7.374,0,7.411,0,7.569.161,7.569.055,0,.086.068.086.185s.031.185.093.185a.093.093,0,0,1,.093.093.093.093,0,0,0,.093.093.093.093,0,0,1,.093.093.093.093,0,0,0,.093.093.093.093,0,0,1,.093.093c0,.061.061.093.179.093.1,0,.194.04.214.093.029.076.192.093.935.093s.905-.016.935-.093c.02-.053.113-.093.214-.093.118,0,.179-.032.179-.093a.093.093,0,0,1,.093-.093.093.093,0,0,0,.093-.093.093.093,0,0,1,.093-.093.093.093,0,0,0,.093-.093.093.093,0,0,1,.093-.093c.061,0,.093-.061.093-.178s.036-.188.124-.21c.123-.032.124-.084.124-7.479s0-7.446-.124-7.446c-.1,0-.124-.041-.124-.185q0-.185-.093-.185c-.051,0-.093-.055-.093-.123s-.041-.124-.093-.124a.093.093,0,0,1-.093-.093.093.093,0,0,0-.093-.093.093.093,0,0,1-.093-.093q0-.093-.185-.093t-.185-.093c0-.079-.148-.093-.957-.093s-.957.014-.957.093m-5.742,2.717q0,.093-.185.093T44,66.611q0,.093-.185.093c-.123,0-.185.031-.185.093s-.031.093-.069.093c-.12,0-.362.273-.363.41a.188.188,0,0,1-.094.168c-.081.031-.093.769-.093,6.121s.011,6.09.093,6.121a.179.179,0,0,1,.093.16,1.3,1.3,0,0,0,.548.6c.038,0,.069.042.069.093s.062.093.185.093.185.031.185.093c0,.078.143.093.92.093.76,0,.926-.016.955-.093a.216.216,0,0,1,.194-.093.215.215,0,0,0,.194-.093.146.146,0,0,1,.122-.093.09.09,0,0,0,.086-.093.093.093,0,0,1,.093-.093.09.09,0,0,0,.093-.086.146.146,0,0,1,.093-.122.213.213,0,0,0,.093-.192c0-.1.035-.156.093-.156.141,0,.141-12.211,0-12.265a.146.146,0,0,1-.093-.122.09.09,0,0,0-.093-.086c-.053,0-.093-.056-.093-.13a.529.529,0,0,0-.417-.424c-.082,0-.139-.039-.139-.094s-.061-.093-.179-.093c-.1,0-.194-.04-.214-.093-.029-.075-.175-.093-.778-.093-.619,0-.743.015-.743.093m-6.113,2.841c0,.06-.06.093-.17.094-.168,0-.448.227-.448.363,0,.038-.042.069-.093.069a.093.093,0,0,0-.093.093.093.093,0,0,1-.093.093q-.093,0-.093.185c0,.124-.031.185-.093.185-.081,0-.093.563-.093,4.693s.011,4.693.093,4.693c.062,0,.093.062.093.185s.031.185.093.185a.093.093,0,0,1,.093.093.093.093,0,0,0,.093.093.093.093,0,0,1,.093.093c0,.051.055.093.124.093s.123.041.123.093.062.093.185.093.185.031.185.093c0,.078.144.093.926.093s.926-.014.926-.093q0-.093.185-.093t.185-.093c0-.051.055-.093.124-.093s.124-.041.124-.093a.093.093,0,0,1,.093-.093.09.09,0,0,0,.093-.086.146.146,0,0,1,.093-.122.205.205,0,0,0,.093-.185.206.206,0,0,1,.093-.185c.081-.031.093-.611.093-4.7,0-4.1-.011-4.664-.093-4.664-.062,0-.093-.062-.093-.185s-.031-.185-.093-.185a.093.093,0,0,1-.093-.093.093.093,0,0,0-.093-.093c-.051,0-.093-.031-.093-.069,0-.135-.279-.362-.448-.363-.109,0-.17-.034-.17-.094,0-.078-.144-.093-.926-.093s-.926.014-.926.093M32.48,71.982c-.02.053-.113.093-.214.093-.118,0-.179.032-.179.093s-.059.093-.156.093a.213.213,0,0,0-.192.093.147.147,0,0,1-.122.093.086.086,0,0,0-.086.086.146.146,0,0,1-.093.122.2.2,0,0,0-.093.185.206.206,0,0,1-.093.185c-.081.031-.093.463-.093,3.372,0,2.924.012,3.336.093,3.336q.093,0,.093.185t.093.185a.093.093,0,0,1,.093.093.093.093,0,0,0,.093.093.093.093,0,0,1,.093.093.093.093,0,0,0,.093.093.093.093,0,0,1,.093.093q0,.093.185.093c.124,0,.185.031.185.093,0,.078.148.093.957.093s.957-.014.957-.093q0-.093.185-.093t.185-.093a.093.093,0,0,1,.093-.093.093.093,0,0,0,.093-.093.087.087,0,0,1,.079-.093c.107,0,.28-.211.327-.4a.5.5,0,0,1,.125-.225,51.629,51.629,0,0,0-.006-6.456.2.2,0,0,1-.093-.185.2.2,0,0,0-.089-.184.327.327,0,0,1-.128-.214c-.033-.149-.071-.18-.22-.18-.119,0-.181-.032-.181-.093a.093.093,0,0,0-.093-.093.093.093,0,0,1-.093-.093c0-.061-.061-.093-.179-.093-.1,0-.194-.04-.214-.093-.029-.075-.172-.093-.75-.093s-.721.018-.749.093m-6.135,2.841c0,.062-.062.093-.185.093s-.185.031-.185.093a.093.093,0,0,1-.093.093c-.051,0-.093.055-.093.124s-.041.124-.093.124a.093.093,0,0,0-.093.093.093.093,0,0,1-.093.093q-.093,0-.093.185c0,.144-.028.185-.124.185-.121,0-.123.041-.123,1.889s0,1.89.123,1.921c.087.023.124.084.124.21s.032.178.093.178a.093.093,0,0,1,.093.093.093.093,0,0,0,.093.093.093.093,0,0,1,.093.093.093.093,0,0,0,.093.093.093.093,0,0,1,.093.093q0,.093.185.093c.124,0,.185.031.185.093,0,.078.144.093.928.093.768,0,.934-.016.964-.093a.146.146,0,0,1,.121-.093.09.09,0,0,0,.086-.093q0-.093.185-.093t.185-.093a.093.093,0,0,1,.093-.093A.09.09,0,0,0,29,80.2a.147.147,0,0,1,.093-.122.179.179,0,0,0,.093-.161.43.43,0,0,1,.123-.249,10.9,10.9,0,0,0-.038-3.767c-.054,0-.085-.069-.085-.185s-.031-.185-.093-.185A.093.093,0,0,1,29,75.44a.093.093,0,0,0-.093-.093.087.087,0,0,1-.093-.079c0-.106-.211-.28-.4-.326a.287.287,0,0,1-.184-.125,4.507,4.507,0,0,0-1.89.006" transform="translate(7560.177 614.249)" fill="#fff" fill-rule="evenodd"/>
    </g>
  </g>
</svg>
