<svg id="asterisk" xmlns="http://www.w3.org/2000/svg" width="164" height="81" viewBox="0 0 164 81">
  <rect id="Rectangle_4" data-name="Rectangle 4" width="164" height="81" fill="none"/>
  <g id="Group_6" data-name="Group 6" transform="translate(49.529 22.021)">
    <path id="path2325" d="M365.135,289.236a4.1,4.1,0,0,1-1.755-.963,4.36,4.36,0,0,1-.637-.809,3.2,3.2,0,0,1-.275-.946l-.069-.533h2.168l.275.568a1.559,1.559,0,0,0,.757.826,3.3,3.3,0,0,0,3.114-.344.719.719,0,0,0,.224-.705,1.19,1.19,0,0,0-.206-.533,2.866,2.866,0,0,0-.585-.378,12.536,12.536,0,0,0-1.875-.516,14.907,14.907,0,0,1-1.841-.5,2.946,2.946,0,0,1-1.5-1.239,2.2,2.2,0,0,1-.292-1.256,2.574,2.574,0,0,1,.206-1.135,3,3,0,0,1,.516-.688,4.218,4.218,0,0,1,.791-.533,6.9,6.9,0,0,1,2.529-.551,8.7,8.7,0,0,1,1.187.1,6.7,6.7,0,0,1,1.135.361,4.161,4.161,0,0,1,.929.619,3.453,3.453,0,0,1,.877,1.7v.241h-2.236l-.224-.413A1.426,1.426,0,0,0,367.7,281a2.426,2.426,0,0,0-1.153-.206,3.278,3.278,0,0,0-1.118.189,1.178,1.178,0,0,0-.533.447,1.011,1.011,0,0,0-.052.551,1.193,1.193,0,0,0,.4.516,7.088,7.088,0,0,0,1.5.516,9.925,9.925,0,0,1,3.424,1.153,2.815,2.815,0,0,1,.723.843,2.319,2.319,0,0,1,.241,1.2,2.528,2.528,0,0,1-.292,1.307,2.722,2.722,0,0,1-.757.929,4.593,4.593,0,0,1-3.131.86A11.655,11.655,0,0,1,365.135,289.236Z" transform="translate(-349.583 -253.022)" fill="#fff"/>
    <path id="path2323" d="M449.271,279.1a4.661,4.661,0,0,0-1.961.413,6.214,6.214,0,0,0-1.29.895,4.7,4.7,0,0,0-.929,1.221,8.775,8.775,0,0,0-.5,1.48,5.348,5.348,0,0,0-.1,1.652,9.729,9.729,0,0,0,.275,1.531,4.525,4.525,0,0,0,1.566,2.288,4.437,4.437,0,0,0,1.2.619,5.083,5.083,0,0,0,1.91.189l1.256-.034.74-.361a5.89,5.89,0,0,0,1.221-.843,4.062,4.062,0,0,0,1.049-1.892v-.224h-2.03l-.327.568a1.983,1.983,0,0,1-.757.791,3.534,3.534,0,0,1-2.185.172,2.44,2.44,0,0,1-.774-.465,3.529,3.529,0,0,1-.6-.757,3.471,3.471,0,0,1-.275-.963l-.069-.533h7.226v-.74a5.65,5.65,0,0,0-.172-1.359,8.893,8.893,0,0,0-.447-1.187,5.5,5.5,0,0,0-.757-1.067,4.447,4.447,0,0,0-1.118-.843,5.166,5.166,0,0,0-1.273-.464A3.617,3.617,0,0,0,449.271,279.1Zm0,1.755a1.629,1.629,0,0,1,.482.069,3.132,3.132,0,0,1,.809.361,2.83,2.83,0,0,1,.671.74,3.3,3.3,0,0,1,.378.946l.069.464h-4.937v-.31a2.352,2.352,0,0,1,.292-.877,2.476,2.476,0,0,1,.723-.877,3.28,3.28,0,0,1,1-.447A1.941,1.941,0,0,1,449.271,280.855Z" transform="translate(-417.53 -253.105)" fill="#fff"/>
    <path id="path2319" d="M562.177,289.44a5.447,5.447,0,0,1-1.049-.482,3.172,3.172,0,0,1-1.135-1.376,4.023,4.023,0,0,1-.224-.843l-.069-.464h2.271l.069.361a1.536,1.536,0,0,0,.413.688,2.24,2.24,0,0,0,.723.465,4.874,4.874,0,0,0,2.116,0,2.037,2.037,0,0,0,.688-.378.846.846,0,0,0,.258-.671.836.836,0,0,0-.292-.705,2.016,2.016,0,0,0-.6-.4c-.172-.069-.981-.275-1.806-.447a15.737,15.737,0,0,1-2.064-.6,3.577,3.577,0,0,1-.946-.705,2.76,2.76,0,0,1-.568-2.082,2.691,2.691,0,0,1,.43-1.015,2.358,2.358,0,0,1,1.049-.877,4.748,4.748,0,0,1,1.669-.482,5.872,5.872,0,0,1,3.286.43,4.164,4.164,0,0,1,.929.654,3.782,3.782,0,0,1,.809,1.531l.069.361H565.79l-.069-.258a1.466,1.466,0,0,0-.344-.533,1.808,1.808,0,0,0-.895-.413,2.589,2.589,0,0,0-1.2,0,2.119,2.119,0,0,0-.86.361.8.8,0,0,0,0,1.153,3.646,3.646,0,0,0,.482.344,16.113,16.113,0,0,0,1.738.465,15.847,15.847,0,0,1,2.133.619,3.6,3.6,0,0,1,1.049.74,2.7,2.7,0,0,1,.55.946,3.367,3.367,0,0,1,.069,1.032,3.543,3.543,0,0,1-.275,1,3.61,3.61,0,0,1-.723.877,4.659,4.659,0,0,1-1.118.688,5.328,5.328,0,0,1-2.1.292A7.848,7.848,0,0,1,562.177,289.44Z" transform="translate(-512.941 -253.312)" fill="#fff"/>
    <path id="path2317" d="M414.634,276.365a3.162,3.162,0,0,1-.74-.292,2,2,0,0,1-.568-.619l-.241-.43-.034-3.406-.034-3.406H411.4v-1.652h1.652V263.6h2.168l.034,1.445.034,1.445.946.034.946.034v1.617h-2l.034,2.993.034,2.993.241.241c.206.206.361.241.946.241h.705V276.3l-.5.069A4.948,4.948,0,0,1,414.634,276.365Z" transform="translate(-390.154 -240.272)" fill="#fff"/>
    <path id="path2315" d="M295.47,258.9c-.172,0-.5.017-1.084.017h-1.273l-2.391,6.211c-1.307,3.424-2.477,6.469-2.6,6.8l-.224.568,1.273-.034,1.273-.034.619-1.738.619-1.738,2.667-.034,2.667-.034.447,1.29c.258.705.533,1.514.637,1.806l.189.516h1.29c1.393-.017,1.359.1,1.239-.189s-4.989-13.023-5.109-13.23C295.659,258.917,295.762,258.9,295.47,258.9Zm-1.1,2.495a6.974,6.974,0,0,1,.4.981c.189.551.637,1.841,1,2.839l.637,1.824H292.39l.31-.895C293.354,264.216,294.334,261.429,294.369,261.395Z" transform="translate(-287.9 -236.38)" fill="#fff"/>
    <path id="path2311" d="M505.2,284.292v-4.9h2.064v1.652l.361-.533a3.543,3.543,0,0,1,.877-.877,3.754,3.754,0,0,1,.963-.465,3.344,3.344,0,0,1,.946-.086l.516.034.034,1.049.034,1.049-.74-.017a2.349,2.349,0,0,0-1.256.241,2.642,2.642,0,0,0-.791.619,4.4,4.4,0,0,0-.5.946c-.206.516-.241.86-.275,3.389l-.052,2.8h-2.168v-4.9Z" transform="translate(-467.817 -253.084)" fill="#fff"/>
    <path id="path2309" d="M542,285.8v-4.9h2.305v9.806H542Z" transform="translate(-498.286 -254.596)" fill="#fff"/>
    <path id="path2307" d="M614.669,265.878l.034-6.778h2.168l.034,3.8.034,3.8,1.858-1.927,1.858-1.927h2.753l-1.841,1.789-1.841,1.789,2.03,3.062c1.118,1.686,2.03,3.079,2.03,3.114s.275.052-1.342.052H621.1l-1.411-2.254c-.774-1.239-1.445-2.305-1.5-2.374s-.31.1-.688.482l-.6.6v3.544H614.6Z" transform="translate(-558.396 -236.546)" fill="#fff"/>
    <path id="path2303" d="M360.006,128a13.1,13.1,0,0,0-4.4.637,18,18,0,0,0-1.686.654,17.086,17.086,0,0,0-1.858,1.067,24.05,24.05,0,0,0-1.944,1.48,21.823,21.823,0,0,0-1.669,1.669,18.941,18.941,0,0,0-1.342,1.738,4.23,4.23,0,0,1-.6.809,10.812,10.812,0,0,1,1.325-2.563l.619-.929-.671.654a17.566,17.566,0,0,0-1.462,1.7,22.346,22.346,0,0,0-1.29,1.961,16.608,16.608,0,0,0-.86,1.944l-.361,1.032v3.716l.292.877a10.239,10.239,0,0,0,.705,1.583,9.4,9.4,0,0,0,1.17,1.5,10.651,10.651,0,0,0,1.479,1.273,9.809,9.809,0,0,0,3.888,1.531,18.536,18.536,0,0,0,2.219.172,22.567,22.567,0,0,0,2.495-.155,23.89,23.89,0,0,0,2.426-.533,23.266,23.266,0,0,0,2.409-.86l1.135-.5.723.206c.809.241,4.525,1.084,4.576,1.032.017-.017-.4-.912-.929-1.978l-.963-1.944.86-1.032c.482-.568,1.135-1.445,1.48-1.944a22.077,22.077,0,0,0,1.135-2.013,16.121,16.121,0,0,0,.757-1.91A17.025,17.025,0,0,0,370,137.1a8.853,8.853,0,0,0,0-1.91,10.635,10.635,0,0,0-.378-1.686,9.893,9.893,0,0,0-.74-1.583,8.527,8.527,0,0,0-2.77-2.821,7.5,7.5,0,0,0-.74-.361,2.449,2.449,0,0,0,.482.447,7.313,7.313,0,0,1,1.738,2.1l.241.465-.241-.327c-.138-.172-.619-.705-1.067-1.153a6.064,6.064,0,0,0-1.755-1.29,9.246,9.246,0,0,0-2.013-.688A9.448,9.448,0,0,0,360.006,128Zm-.052,1.2a8.46,8.46,0,0,1,2.374.224,10.721,10.721,0,0,1,1.583.568,5.421,5.421,0,0,1,1.566,1.17,5.7,5.7,0,0,1,1.273,1.755,8.532,8.532,0,0,1,.619,1.686,9.523,9.523,0,0,1,.155,1.6,10.667,10.667,0,0,1-1.153,4.611c-.206.413-.585,1.084-.843,1.48a13.411,13.411,0,0,1-1.307,1.583,9.3,9.3,0,0,0-.843.946c0,.034.4.671.877,1.393a16.064,16.064,0,0,1,.877,1.428c0,.052-.017.086-.052.086s-.757-.275-1.617-.6a12.48,12.48,0,0,0-1.841-.6,3.185,3.185,0,0,0-.86.258,21.922,21.922,0,0,1-4.112,1.221,16.059,16.059,0,0,1-1.927.155,9.835,9.835,0,0,1-4.525-1.049,5.669,5.669,0,0,1-1.978-1.445,6.1,6.1,0,0,1-1.342-1.755,10.912,10.912,0,0,1-.568-1.462,8.348,8.348,0,0,1,.052-3.51,11.9,11.9,0,0,1,.774-1.978,15.471,15.471,0,0,1,1.2-1.978,16.784,16.784,0,0,1,1.634-1.789,15.208,15.208,0,0,1,3.561-2.512,16.748,16.748,0,0,1,3.8-1.29A14.036,14.036,0,0,1,359.954,129.2Z" transform="translate(-334.183 -128)" fill="#fff"/>
    <path id="path2299" d="M387.289,161.617l.052-2.082-1.772,1.1c-.981.6-1.789,1.084-1.806,1.067-.086-.1-1.462-2.443-1.462-2.495a17.585,17.585,0,0,1,1.806-1.084c.981-.568,1.806-1.049,1.806-1.084s-.809-.516-1.806-1.084-1.806-1.049-1.806-1.084c0-.052,1.376-2.409,1.462-2.495.017-.017.757.447,1.634,1.015.895.585,1.686,1.084,1.772,1.118.138.052.155-.224.12-2.03l-.052-2.082h3.028l-.069,2.133-.069,2.133.74-.482c.413-.258,1.153-.74,1.669-1.067s.981-.637,1.049-.671c.086-.052.4.361.895,1.2.413.705.757,1.29.74,1.29-.017.017-.74.43-1.6.912-.877.5-1.7.963-1.841,1.067l-.258.155,1.738.981c.946.533,1.789,1.015,1.858,1.049.086.052-.086.447-.637,1.359-.654,1.084-.791,1.256-.963,1.17-.1-.052-.843-.516-1.652-1.015s-1.531-.946-1.617-1c-.12-.069-.138.275-.069,2l.086,2.082h-3.028Z" transform="translate(-366.06 -146.546)" fill="#fff"/>
    <path id="path2279" d="M358.9,175.752a.052.052,0,1,0-.052.052A.046.046,0,0,0,358.9,175.752Z" transform="translate(-346.603 -167.494)" fill="#fff"/>
    <path id="flowRoot2289" d="M653.9,273.1h.86v.275h-.292v.843h-.275v-.843H653.9Zm1,0h.378l.138.688.138-.688h.378v1.118h-.224v-.86l-.172.86h-.206l-.172-.86v.86h-.224V273.1Z" transform="translate(-590.935 -248.138)" fill="#fff"/>
    <path id="path2329" d="M343.133,196.668a7.306,7.306,0,0,1-.533-2.684,6.958,6.958,0,0,1,.619-2.684Z" transform="translate(-333.19 -180.41)" fill="#fff" stroke="#f68f1e" stroke-width="1" fill-rule="evenodd"/>
    <path id="path2339" d="M343.156,202.167a6.779,6.779,0,0,1-.069-2.271c.017-.069.034-.189.052-.258l.034-.138v2.77Z" transform="translate(-333.539 -187.199)" fill="#fff" fill-rule="evenodd"/>
  </g>
</svg>
