<svg xmlns="http://www.w3.org/2000/svg" width="164" height="81" viewBox="0 0 164 81">
  <g id="gnu-01" transform="translate(0.068)">
    <rect id="Rectangle_5" data-name="Rectangle 5" width="164" height="81" transform="translate(-0.068)" fill="none"/>
    <g id="Group_7" data-name="Group 7" transform="translate(6.244 23.913)">
      <path id="_76325656" d="M407.342,172.6h-4.3v13.126c0,3.011-1,4.542-4.163,4.542-3.148,0-4.008-1.617-4.008-4.542V172.6h-2.185a1.994,1.994,0,0,0-1.548.705,2.294,2.294,0,0,0-.637,1.6v11.3c0,5.815,2.615,7.673,8.258,7.673,2.288,0,5.316-.224,6.967-2.03,1.359-1.48,1.583-3.733,1.583-5.66V172.6Z" transform="translate(-329.444 -166.82)" fill="#fff" fill-rule="evenodd"/>
      <path id="_76325560" d="M280.9,193.846h4.232V179.086l8.653,14.554.138.206h4.284V172.6h-4.215v14.537l-8.6-14.537h-2.305a2.318,2.318,0,0,0-1.548.705,2.1,2.1,0,0,0-.637,1.548v18.993Z" transform="translate(-238.7 -166.82)" fill="#fff" fill-rule="evenodd"/>
      <path id="_76325464" d="M181.3,179.471l-.017-.155a7.889,7.889,0,0,0-2.89-5.092h0a10.313,10.313,0,0,0-6.245-1.824,8.961,8.961,0,0,0-7.019,2.959,12.973,12.973,0,0,0,.069,15.483,9.471,9.471,0,0,0,10.271,2.236h0a6.3,6.3,0,0,0,2.064-1.617l.034-.052v2.322h3.785V182.258h-7.294v3.561h3.217v.034a5.18,5.18,0,0,1-1.548,2.925,4.681,4.681,0,0,1-3.165,1.067,4.895,4.895,0,0,1-4.026-1.755,7.843,7.843,0,0,1-1.48-5.041,8.212,8.212,0,0,1,1.428-5.023,4.588,4.588,0,0,1,3.819-1.738,5.222,5.222,0,0,1,2.993.791,4.054,4.054,0,0,1,1.118,1.239,2.045,2.045,0,0,0,1.927,1.17l2.959-.017Z" transform="translate(-140.751 -166.654)" fill="#fff" fill-rule="evenodd"/>
      <path id="_76324888" d="M613.23,202.656h4.043a1.707,1.707,0,0,1,.981-.912,4.6,4.6,0,0,1,1.531-.241c.963,0,2.718.172,2.7,1.48v1.738h-.017c-1.462.034-2.993.034-4.438.206a7.642,7.642,0,0,0-3.234,1,3.992,3.992,0,0,0-.516.378,4.449,4.449,0,0,0-1.48,3.647c0,3.3,2.271,5.109,5.454,5.109h.069a23.935,23.935,0,0,0,2.477-.155,7.7,7.7,0,0,0,1.738-.4l.034-.017v.551h3.871c0-4.094.034-8.206.034-12.3a3.857,3.857,0,0,0-1.755-3.389,9.4,9.4,0,0,0-5.109-1.153,7.2,7.2,0,0,0-4.679,1.393,4.534,4.534,0,0,0-1.7,3.062Zm9.324,5.2v1a2.926,2.926,0,0,1-.6,2.133,4.7,4.7,0,0,1-3.079.826,2.686,2.686,0,0,1-1.738-.465,2.136,2.136,0,0,1-.275-2.374c.275-.654,1.307-.86,1.927-.963a24.664,24.664,0,0,1,3.733-.172l.034.017Z" transform="translate(-513.501 -188.016)" fill="#fff" fill-rule="evenodd"/>
      <path id="_97397504" d="M839.208,214.649a8.529,8.529,0,0,0,4.06-.086,6.069,6.069,0,0,0,3.716-2.495,8.765,8.765,0,0,0,1.1-2.374,11.588,11.588,0,0,0,.43-3.355,10.121,10.121,0,0,0-1.032-4.7,6.148,6.148,0,0,0-3.406-3.165,9.325,9.325,0,0,0-4.507-.4,6.255,6.255,0,0,0-4.077,2.168,6.745,6.745,0,0,0-1.428,2.735,12.553,12.553,0,0,0-.464,3.3,13.411,13.411,0,0,0,.551,3.871,6.111,6.111,0,0,0,1.824,2.959,7.06,7.06,0,0,0,3.234,1.531Zm-1.531-8.1a5.706,5.706,0,0,1,1.17-4.2,3.43,3.43,0,0,1,1.359-.705,2.928,2.928,0,0,1,1.841.034,3.354,3.354,0,0,1,1.634,1.411,6.468,6.468,0,0,1,.705,3.32,7.451,7.451,0,0,1-.791,3.561,3.242,3.242,0,0,1-1.7,1.393,2.917,2.917,0,0,1-1.875-.069,2.835,2.835,0,0,1-1.29-.826,7.152,7.152,0,0,1-1.049-3.922Z" transform="translate(-696.315 -187.828)" fill="#fff" fill-rule="evenodd"/>
      <path id="path3476" d="M799.5,175.669h4.232V174.4a2.042,2.042,0,0,0-.6-1.462,1.945,1.945,0,0,0-.929-.533h-2.7v3.269Z" transform="translate(-668.081 -166.654)" fill="#fff" fill-rule="evenodd"/>
      <path id="_97397312" d="M799.5,198.2v16.842h4.232v-14.8a2.056,2.056,0,0,0-2.047-2.047H799.5Z" transform="translate(-668.081 -188.015)" fill="#fff" fill-rule="evenodd"/>
      <path id="path3480" d="M712.814,172.4v6.95l-.034-.069a6.01,6.01,0,0,0-1.944-1.892,5.785,5.785,0,0,0-2.684-.6,5.6,5.6,0,0,0-4.679,2.374,10.016,10.016,0,0,0-1.772,6.159,9.767,9.767,0,0,0,1.772,6.159,5.041,5.041,0,0,0,2.443,1.669,9.535,9.535,0,0,0,3.114.516,10.2,10.2,0,0,0,5.419-1.531c2.013-1.221,2.495-3.647,2.495-5.849V174.4a2,2,0,0,0-.6-1.411,1.852,1.852,0,0,0-.946-.568l-2.581-.017Zm-.929,9.256a5.935,5.935,0,0,1,.929,3.492,6.84,6.84,0,0,1-.86,3.733,3,3,0,0,1-2.581,1.29,3.082,3.082,0,0,1-2.649-1.29,6.6,6.6,0,0,1-.929-3.733,5.689,5.689,0,0,1,.929-3.441,2.953,2.953,0,0,1,2.529-1.29,3.252,3.252,0,0,1,2.632,1.239Z" transform="translate(-587.107 -166.654)" fill="#fff" fill-rule="evenodd"/>
      <path id="_97397120" d="M507.8,193.681h4.3V185.2h4.611c2.357,0,3.3,1.2,3.3,3.492v.052c0,.688-.017,1.393-.017,2.082v.034c0,.378,0,.757.017,1.135v1.686h4.3v-5.729a4.984,4.984,0,0,0-.981-3.355,3.865,3.865,0,0,0-1.755-1.239l-.069-.017.069-.017a4.09,4.09,0,0,0,2.305-1.772,5.786,5.786,0,0,0,.86-3.234,5.719,5.719,0,0,0-1.7-4.456,7.652,7.652,0,0,0-5.058-1.462h-8a2.173,2.173,0,0,0-2.185,2.185v19.1Zm11.853-16.98a2.618,2.618,0,0,1,.809,2.1,2.662,2.662,0,0,1-.809,2.1,3.868,3.868,0,0,1-2.46.671H512.1v-5.608h5.333A3.134,3.134,0,0,1,519.653,176.7Z" transform="translate(-426.564 -166.654)" fill="#fff" fill-rule="evenodd"/>
      <path id="path3486" d="M37.411,144.247a7.283,7.283,0,0,1,12.232-.017L51,142.836a9.215,9.215,0,0,0-15,.052C36.017,142.871,37.411,144.247,37.411,144.247Z" transform="translate(-35.931 -139)" fill="#fff" fill-rule="evenodd"/>
      <path id="path3488" d="M54.116,158.3A6.146,6.146,0,0,0,48.8,161l1.376,1.359a4.211,4.211,0,0,1,3.94-2.15,4.165,4.165,0,0,1,3.957,2.185l1.376-1.411A6.268,6.268,0,0,0,54.116,158.3Z" transform="translate(-46.529 -154.98)" fill="#fff" fill-rule="evenodd"/>
      <path id="path4301" d="M163.177,315.625V313.2H162.3v-.206a.294.294,0,0,1,.31-.292h2.047v.516h-.86v2.426C163.8,315.625,163.177,315.625,163.177,315.625Z" transform="translate(-140.503 -282.817)" fill="#fff" fill-rule="evenodd"/>
      <path id="path4298" d="M182.3,315.625v-2.632a.294.294,0,0,1,.31-.292h.292v1.1h1.221v-1.1h.619v2.942h-.619v-1.307H182.9v1.307h-.6Z" transform="translate(-157.062 -282.817)" fill="#fff" fill-rule="evenodd"/>
      <path id="path4295" d="M202.9,315.625v-2.632a.294.294,0,0,1,.31-.292h1.824v.5H203.5v.637h1.153v.189a.362.362,0,0,1-.086.224.285.285,0,0,1-.206.086h-.843v.757h1.531v.551H202.9Z" transform="translate(-174.118 -282.817)" fill="#fff" fill-rule="evenodd"/>
      <path id="path4292" d="M233.1,315.625v-2.632a.294.294,0,0,1,.31-.292h1.824v.5H233.7v.637h1.153v.189a.362.362,0,0,1-.086.224.285.285,0,0,1-.206.086h-.843v1.307H233.1Z" transform="translate(-199.123 -282.817)" fill="#fff" fill-rule="evenodd"/>
      <path id="path4289" d="M251.8,315.625v-2.632a.294.294,0,0,1,.31-.292h1.118a1.016,1.016,0,0,1,.705.206.79.79,0,0,1,.241.619.724.724,0,0,1-.12.447.535.535,0,0,1-.327.241.508.508,0,0,1,.275.206.849.849,0,0,1,.086.43l.017.344v.206c.017.1.052.172.1.189h-.654a.332.332,0,0,1-.052-.172.926.926,0,0,1-.017-.189v-.31a.754.754,0,0,0-.1-.361.439.439,0,0,0-.327-.086h-.637v1.153Zm.6-1.669h.705a.592.592,0,0,0,.344-.086.466.466,0,0,0,0-.585.421.421,0,0,0-.31-.1h-.74v.774Z" transform="translate(-214.606 -282.817)" fill="#fff" fill-rule="evenodd"/>
      <path id="path4286" d="M272.3,315.625v-2.632a.294.294,0,0,1,.31-.292h1.824v.5H272.9v.637h1.153v.189a.362.362,0,0,1-.086.224.285.285,0,0,1-.206.086h-.843v.757h1.531v.551H272.3Z" transform="translate(-231.579 -282.817)" fill="#fff" fill-rule="evenodd"/>
      <path id="path4283" d="M291,315.625v-2.632a.294.294,0,0,1,.31-.292h1.824v.5H291.6v.637h1.153v.189a.362.362,0,0,1-.086.224.285.285,0,0,1-.206.086h-.843v.757h1.531v.551H291Z" transform="translate(-247.062 -282.817)" fill="#fff" fill-rule="evenodd"/>
      <path id="path4280" d="M321.895,314.252l-.155.1a.373.373,0,0,0-.138.155.458.458,0,0,0-.052.206.342.342,0,0,0,.12.275.377.377,0,0,0,.292.12.608.608,0,0,0,.241-.052.81.81,0,0,0,.206-.155Zm.155-.637.069-.052a.519.519,0,0,0,.138-.138.347.347,0,0,0,.052-.189.168.168,0,0,0-.069-.155.313.313,0,0,0-.344,0,.21.21,0,0,0-.069.155.7.7,0,0,0,.034.12.089.089,0,0,0,.034.069c.017.017.034.052.052.069l.1.12Zm-.447.275-.12-.155a.48.48,0,0,1-.12-.224.508.508,0,0,1-.034-.224.613.613,0,0,1,.206-.5.742.742,0,0,1,.55-.189.766.766,0,0,1,.533.172.575.575,0,0,1,.189.465.713.713,0,0,1-.1.4,1.35,1.35,0,0,1-.361.327l.43.516a1.052,1.052,0,0,0,.086-.206,1.986,1.986,0,0,0,.034-.275h.31c.086,0,.138.017.155.069a.428.428,0,0,1,.017.138,1.434,1.434,0,0,1-.069.258,2.372,2.372,0,0,1-.241.413l.533.654h-.688l-.189-.241c-.069.052-.12.1-.189.155a.465.465,0,0,1-.189.086,2.189,2.189,0,0,1-.585.034.982.982,0,0,1-.516-.189.78.78,0,0,1-.241-.619.88.88,0,0,1,.138-.482,1.078,1.078,0,0,1,.464-.378Z" transform="translate(-271.901 -282.735)" fill="#fff" fill-rule="evenodd"/>
      <path id="path4277" d="M354.319,313.648a1.2,1.2,0,0,0,.206.757.832.832,0,0,0,1.2,0,1.393,1.393,0,0,0,0-1.514.756.756,0,0,0-.6-.258.733.733,0,0,0-.6.258A1.2,1.2,0,0,0,354.319,313.648Zm-.619,0a1.591,1.591,0,0,1,.378-1.135,1.54,1.54,0,0,1,2.1,0,1.892,1.892,0,0,1,0,2.271,1.386,1.386,0,0,1-1.049.413,1.361,1.361,0,0,1-1.049-.413A1.672,1.672,0,0,1,353.7,313.648Z" transform="translate(-298.975 -282.321)" fill="#fff" fill-rule="evenodd"/>
      <path id="path4274" d="M377.5,314.575v1.049h-.6v-2.632a.294.294,0,0,1,.31-.292h1a.846.846,0,0,1,.946.946,1.022,1.022,0,0,1-.224.705.912.912,0,0,1-.671.241H377.5Zm0-.533h.585a.484.484,0,0,0,.344-.1.438.438,0,0,0,.1-.327.42.42,0,0,0-.1-.31.48.48,0,0,0-.31-.1H377.5v.843Z" transform="translate(-318.184 -282.817)" fill="#fff" fill-rule="evenodd"/>
      <path id="path4271" d="M396.3,315.625v-2.632a.294.294,0,0,1,.31-.292h1.824v.5H396.9v.637h1.153v.189a.363.363,0,0,1-.086.224.285.285,0,0,1-.206.086h-.843v.757h1.531v.551H396.3Z" transform="translate(-334.247 -282.817)" fill="#fff" fill-rule="evenodd"/>
      <path id="path4268" d="M415,315.542V312.91a.285.285,0,0,1,.086-.206.3.3,0,0,1,.224-.1h.327l1.2,2.03V312.6h.6v2.942h-.619l-1.2-2.03v2.03Z" transform="translate(-349.729 -282.734)" fill="#fff" fill-rule="evenodd"/>
      <path id="path4265" d="M447,314.382h.6a.466.466,0,0,0,.189.361.779.779,0,0,0,.465.12.794.794,0,0,0,.4-.086.334.334,0,0,0,.138-.275c0-.189-.258-.327-.774-.447H448a.272.272,0,0,1-.069-.017,2.069,2.069,0,0,1-.585-.189.536.536,0,0,1-.241-.275.9.9,0,0,1-.086-.4.811.811,0,0,1,.292-.654,1.33,1.33,0,0,1,.843-.224,1.258,1.258,0,0,1,.809.241.99.99,0,0,1,.31.688h-.344a.265.265,0,0,1-.275-.172h0a.463.463,0,0,0-.12-.138.734.734,0,0,0-.413-.1.615.615,0,0,0-.361.086.31.31,0,0,0-.12.258c0,.155.172.275.5.344a.845.845,0,0,0,.206.052c.1.034.189.069.258.086a1.123,1.123,0,0,0,.189.034c.086.034.155.069.241.1a.62.62,0,0,1,.258.258.784.784,0,0,1,.086.4.889.889,0,0,1-.31.723,1.438,1.438,0,0,1-.877.241,1.4,1.4,0,0,1-.877-.241,1.206,1.206,0,0,1-.31-.774Z" transform="translate(-376.224 -282.486)" fill="#fff" fill-rule="evenodd"/>
      <path id="path4262" d="M490.1,315.625v-2.632a.294.294,0,0,1,.31-.292h1.824v.5H490.7v.637h1.153v.189a.362.362,0,0,1-.086.224.285.285,0,0,1-.206.086h-.843v1.307H490.1Z" transform="translate(-411.91 -282.817)" fill="#fff" fill-rule="evenodd"/>
      <path id="path4259" d="M509.677,315.625V313.2H508.8v-.206a.294.294,0,0,1,.31-.292h2.03v.516h-.86v2.426h-.6Z" transform="translate(-427.392 -282.817)" fill="#fff" fill-rule="evenodd"/>
      <path id="path4256" d="M529.743,315.542,528.9,312.6h.619l.5,2.082.43-2.082h.654l.413,2.082.447-1.858a.267.267,0,0,1,.292-.224h.378l-.843,2.942h-.585l-.447-2.254-.464,2.254Z" transform="translate(-444.034 -282.734)" fill="#fff" fill-rule="evenodd"/>
      <path id="path4253" d="M558.673,312.6h.482l1.067,2.942h-.654l-.189-.6h-1.153l-.189.6H557.4l.981-2.735A.281.281,0,0,1,558.673,312.6Zm.138.585-.413,1.256h.826Z" transform="translate(-467.632 -282.734)" fill="#fff" fill-rule="evenodd"/>
      <path id="path4250" d="M580.3,315.625v-2.632a.294.294,0,0,1,.31-.292h1.118a1.016,1.016,0,0,1,.705.206.79.79,0,0,1,.241.619.724.724,0,0,1-.12.447.535.535,0,0,1-.327.241.508.508,0,0,1,.275.206.849.849,0,0,1,.086.43l.017.344v.206c.017.1.052.172.1.189h-.671a.332.332,0,0,1-.052-.172.926.926,0,0,1-.017-.189v-.31a.753.753,0,0,0-.1-.361.439.439,0,0,0-.327-.086H580.9v1.153Zm.6-1.669h.705a.592.592,0,0,0,.344-.086.466.466,0,0,0,0-.585.421.421,0,0,0-.31-.1h-.74Z" transform="translate(-486.592 -282.817)" fill="#fff" fill-rule="evenodd"/>
      <path id="path4247" d="M600.8,315.625v-2.632a.294.294,0,0,1,.31-.292h1.824v.5H601.4v.637h1.153v.189a.362.362,0,0,1-.086.224.285.285,0,0,1-.206.086h-.843v.757h1.531v.551H600.8Z" transform="translate(-503.565 -282.817)" fill="#fff" fill-rule="evenodd"/>
      <path id="path4244" d="M630.9,315.625v-2.632a.294.294,0,0,1,.31-.292h1.118a1.016,1.016,0,0,1,.705.206.79.79,0,0,1,.241.619.724.724,0,0,1-.12.447.535.535,0,0,1-.327.241.508.508,0,0,1,.275.206.849.849,0,0,1,.086.43l.017.344v.206c.017.1.052.172.1.189h-.671a.332.332,0,0,1-.052-.172.926.926,0,0,1-.017-.189v-.31a.753.753,0,0,0-.1-.361.439.439,0,0,0-.327-.086H631.5v1.153Zm.619-1.669h.705a.592.592,0,0,0,.344-.086.466.466,0,0,0,0-.585.42.42,0,0,0-.31-.1h-.74Z" transform="translate(-528.487 -282.817)" fill="#fff" fill-rule="evenodd"/>
      <path id="path4241" d="M652.756,312.6h.482l1.067,2.942h-.637l-.189-.6h-1.153l-.189.6H651.5l.981-2.735a.262.262,0,0,1,.275-.206Zm.138.585-.413,1.256h.826l-.413-1.256Z" transform="translate(-545.543 -282.734)" fill="#fff" fill-rule="evenodd"/>
      <path id="path4238" d="M674.3,315.625v-2.632a.294.294,0,0,1,.31-.292h.843a1.329,1.329,0,0,1,1.015.361,1.638,1.638,0,0,1,.327,1.118,1.84,1.84,0,0,1-.12.705,1.106,1.106,0,0,1-.361.5.975.975,0,0,1-.4.206,2.75,2.75,0,0,1-.619.052h-1Zm.585-.533h.482a.782.782,0,0,0,.619-.224,1.1,1.1,0,0,0,.189-.723,1.179,1.179,0,0,0-.172-.723.635.635,0,0,0-.551-.224h-.568v1.892Z" transform="translate(-564.42 -282.817)" fill="#fff" fill-rule="evenodd"/>
      <path id="path4235" d="M695.2,315.625v-2.632a.294.294,0,0,1,.31-.292h.292v2.942h-.6Z" transform="translate(-581.725 -282.817)" fill="#fff" fill-rule="evenodd"/>
      <path id="path4232" d="M704.9,313.648a1.2,1.2,0,0,0,.206.757.831.831,0,0,0,1.2,0,1.393,1.393,0,0,0,0-1.514.756.756,0,0,0-.6-.258.733.733,0,0,0-.6.258A1.2,1.2,0,0,0,704.9,313.648Zm-.6,0a1.591,1.591,0,0,1,.378-1.135,1.54,1.54,0,0,1,2.1,0,1.893,1.893,0,0,1,0,2.271,1.386,1.386,0,0,1-1.049.413,1.361,1.361,0,0,1-1.049-.413A1.591,1.591,0,0,1,704.3,313.648Z" transform="translate(-589.259 -282.321)" fill="#fff" fill-rule="evenodd"/>
      <path id="path4229" d="M738.9,315.625v-2.632a.294.294,0,0,1,.31-.292h1.824v.5H739.5v.637h1.153v.189a.362.362,0,0,1-.086.224.285.285,0,0,1-.206.086h-.843v.757h1.531v.551H738.9Z" transform="translate(-617.907 -282.817)" fill="#fff" fill-rule="evenodd"/>
      <path id="path4226" d="M760.067,314.2a1.2,1.2,0,0,1-.378.809,1.424,1.424,0,0,1-.929.275,1.283,1.283,0,0,1-1.015-.4,1.6,1.6,0,0,1-.344-1.135,1.625,1.625,0,0,1,.361-1.153,1.341,1.341,0,0,1,1.067-.4,1.326,1.326,0,0,1,.895.275,1.137,1.137,0,0,1,.361.774h-.361a.288.288,0,0,1-.292-.172h0a.764.764,0,0,0-.138-.189.724.724,0,0,0-.447-.12.733.733,0,0,0-.6.258,1.2,1.2,0,0,0-.206.757,1.149,1.149,0,0,0,.206.74.7.7,0,0,0,.585.258.729.729,0,0,0,.447-.138.685.685,0,0,0,.224-.413h.568Z" transform="translate(-633.224 -282.403)" fill="#fff" fill-rule="evenodd"/>
      <path id="path4223" d="M779.619,313.648a1.2,1.2,0,0,0,.206.757.831.831,0,0,0,1.2,0,1.393,1.393,0,0,0,0-1.514.756.756,0,0,0-.6-.258.733.733,0,0,0-.6.258A1.2,1.2,0,0,0,779.619,313.648Zm-.619,0a1.591,1.591,0,0,1,.378-1.135,1.54,1.54,0,0,1,2.1,0,1.892,1.892,0,0,1,0,2.271,1.386,1.386,0,0,1-1.049.413,1.361,1.361,0,0,1-1.049-.413A1.672,1.672,0,0,1,779,313.648Z" transform="translate(-651.108 -282.321)" fill="#fff" fill-rule="evenodd"/>
      <path id="path4220" d="M802.2,314.382h.6a.466.466,0,0,0,.189.361.779.779,0,0,0,.465.12.794.794,0,0,0,.4-.086.334.334,0,0,0,.138-.275c0-.189-.258-.327-.774-.447H803.2a.272.272,0,0,1-.069-.017,2.07,2.07,0,0,1-.585-.189.536.536,0,0,1-.241-.275.9.9,0,0,1-.086-.4.811.811,0,0,1,.293-.654,1.33,1.33,0,0,1,.843-.224,1.258,1.258,0,0,1,.809.241.99.99,0,0,1,.31.688h-.344a.265.265,0,0,1-.275-.172h0a.464.464,0,0,0-.12-.138.734.734,0,0,0-.413-.1.615.615,0,0,0-.361.086.31.31,0,0,0-.12.258c0,.155.172.275.5.344a.845.845,0,0,0,.206.052c.1.034.189.069.258.086a1.123,1.123,0,0,0,.189.034c.086.034.155.069.241.1a.621.621,0,0,1,.258.258.785.785,0,0,1,.086.4.889.889,0,0,1-.31.723,1.438,1.438,0,0,1-.877.241,1.4,1.4,0,0,1-.877-.241,1.206,1.206,0,0,1-.31-.774Z" transform="translate(-670.317 -282.486)" fill="#fff" fill-rule="evenodd"/>
      <path id="path4217" d="M824.169,315.542h-.6v-1.1L822.5,312.6h.74l.619,1.273.5-1.1a.279.279,0,0,1,.275-.172h.482l-.963,1.841.017,1.1Z" transform="translate(-687.125 -282.734)" fill="#fff" fill-rule="evenodd"/>
      <path id="path4214" d="M844.3,314.382h.6a.467.467,0,0,0,.189.361.779.779,0,0,0,.465.12.794.794,0,0,0,.4-.086.334.334,0,0,0,.138-.275c0-.189-.258-.327-.774-.447H845.3a.272.272,0,0,1-.069-.017,2.07,2.07,0,0,1-.585-.189.536.536,0,0,1-.241-.275.9.9,0,0,1-.086-.4.811.811,0,0,1,.292-.654,1.33,1.33,0,0,1,.843-.224,1.258,1.258,0,0,1,.809.241.99.99,0,0,1,.31.688h-.344a.265.265,0,0,1-.275-.172h0a.464.464,0,0,0-.12-.138.734.734,0,0,0-.413-.1.615.615,0,0,0-.361.086.31.31,0,0,0-.12.258c0,.155.172.275.5.344a.845.845,0,0,0,.206.052c.1.034.189.069.258.086a1.123,1.123,0,0,0,.189.034c.086.034.155.069.241.1a.62.62,0,0,1,.258.258.784.784,0,0,1,.086.4.889.889,0,0,1-.31.723,1.439,1.439,0,0,1-.877.241,1.4,1.4,0,0,1-.877-.241A1.306,1.306,0,0,1,844.3,314.382Z" transform="translate(-705.174 -282.486)" fill="#fff" fill-rule="evenodd"/>
      <path id="path4211" d="M865.477,315.625V313.2H864.6v-.206a.294.294,0,0,1,.31-.292h2.03v.516h-.86v2.426h-.6Z" transform="translate(-721.982 -282.817)" fill="#fff" fill-rule="evenodd"/>
      <path id="path4208" d="M884.6,315.625v-2.632a.294.294,0,0,1,.31-.292h1.824v.5H885.2v.637h1.153v.189a.363.363,0,0,1-.086.224.285.285,0,0,1-.206.086h-.843v.757h1.531v.551H884.6Z" transform="translate(-738.541 -282.817)" fill="#fff" fill-rule="evenodd"/>
      <path id="path4205" d="M903.3,315.542V312.91a.285.285,0,0,1,.086-.206.3.3,0,0,1,.224-.1h.585l.585,2.254.585-2.254h.895v2.942h-.568v-2.374l-.6,2.374h-.619l-.6-2.374v2.374Z" transform="translate(-754.024 -282.734)" fill="#fff" fill-rule="evenodd"/>
      <path id="path3484" d="M53.062,186.021a4.4,4.4,0,0,1,0,6.228,4.185,4.185,0,0,1-3.079,1.29,4.329,4.329,0,0,1-2.254-.6L46.163,194.5a6.03,6.03,0,0,1-.31,8.206,5.735,5.735,0,0,1-4.215,1.772,5.845,5.845,0,0,1-4.267-1.755,5.756,5.756,0,0,1-1.772-4.249,5.881,5.881,0,0,1,1.72-4.266,5.627,5.627,0,0,1,4.215-1.772,5.907,5.907,0,0,1,3.836,1.325l1.48-1.48a4.181,4.181,0,0,1-1.256-3.062,4.3,4.3,0,0,1,1.256-3.114,2.858,2.858,0,0,1,.241-.224l-1.514-1.514A3.407,3.407,0,0,1,40.8,184.3a3.26,3.26,0,0,1-1.015-2.443,3.362,3.362,0,0,1,.981-2.443A3.186,3.186,0,0,1,43.17,178.4a3.374,3.374,0,0,1,2.477,1.015,3.3,3.3,0,0,1,1.015,2.46,3.334,3.334,0,0,1-.5,1.789l1.686,1.686a4.178,4.178,0,0,1,2.064-.516A3.973,3.973,0,0,1,53.062,186.021ZM43.2,179.845a1.818,1.818,0,0,0-1.359.568,1.938,1.938,0,0,0-.551,1.376,1.894,1.894,0,0,0,.533,1.376,1.853,1.853,0,0,0,1.376.551,1.77,1.77,0,0,0,1.325-.568,1.9,1.9,0,0,0,.551-1.359,2.168,2.168,0,0,0-.138-.74,1.6,1.6,0,0,0-.4-.6,2,2,0,0,0-.619-.43A1.591,1.591,0,0,0,43.2,179.845Zm-1.566,15.191a3.132,3.132,0,0,0-2.374,1,3.354,3.354,0,0,0-.963,2.391,3.255,3.255,0,0,0,.946,2.391,3.215,3.215,0,0,0,2.391.963,3.073,3.073,0,0,0,2.322-1,3.259,3.259,0,0,0,.946-2.357,3.652,3.652,0,0,0-.241-1.29,3.3,3.3,0,0,0-3.028-2.1Zm8.344-8.361a2.286,2.286,0,0,0-1.72.723,2.431,2.431,0,0,0-.705,1.738,2.381,2.381,0,0,0,2.426,2.443,2.238,2.238,0,0,0,1.686-.723,2.376,2.376,0,0,0,.688-1.72,2.559,2.559,0,0,0-.172-.946,2.6,2.6,0,0,0-.5-.774,2.756,2.756,0,0,0-.774-.551A2.56,2.56,0,0,0,49.982,186.675Z" transform="translate(-35.6 -171.622)" fill="#fff" fill-rule="evenodd"/>
      <path id="path4202" d="M467.6,313.648a1.2,1.2,0,0,0,.206.757.832.832,0,0,0,1.2,0,1.393,1.393,0,0,0,0-1.514.756.756,0,0,0-.6-.258.733.733,0,0,0-.6.258A1.2,1.2,0,0,0,467.6,313.648Zm-.6,0a1.591,1.591,0,0,1,.378-1.135,1.54,1.54,0,0,1,2.1,0,1.892,1.892,0,0,1,0,2.271,1.386,1.386,0,0,1-1.049.413,1.361,1.361,0,0,1-1.049-.413A1.591,1.591,0,0,1,467,313.648Z" transform="translate(-392.784 -282.321)" fill="#fff" fill-rule="evenodd"/>
    </g>
  </g>
</svg>
