<svg xmlns="http://www.w3.org/2000/svg" width="164" height="81" viewBox="0 0 164 81">
  <g id="Group_22" data-name="Group 22" transform="translate(-7576 -505)">
    <rect id="Rectangle_7" data-name="Rectangle 7" width="164" height="81" transform="translate(7576 505)" fill="none"/>
    <path id="mqtt-hor-transp" d="M78.768,36.625q.321.7.6,1.433.277-.742.616-1.458c.214-.465.44-.93.666-1.37l6.336-12.5a2.065,2.065,0,0,1,.352-.5,1.242,1.242,0,0,1,.4-.264,1.281,1.281,0,0,1,.5-.088h5.029V46.595H88.223V32.363c0-.691.038-1.433.1-2.238l-6.55,12.711a2.206,2.206,0,0,1-.817.905,2.3,2.3,0,0,1-1.182.3h-.779a2.328,2.328,0,0,1-1.182-.3A2.13,2.13,0,0,1,77,42.836L70.4,30.113c.05.4.075.792.1,1.182s.038.754.038,1.081V46.595H65.479V21.878h5.029a1.281,1.281,0,0,1,.5.088,1.175,1.175,0,0,1,.4.264,2.167,2.167,0,0,1,.352.5l6.362,12.56C78.341,35.72,78.554,36.16,78.768,36.625Zm41.627-2.4a14.339,14.339,0,0,1-.327,3.068,12.945,12.945,0,0,1-.955,2.753,11.369,11.369,0,0,1-1.534,2.389,11.215,11.215,0,0,1-2.062,1.949l6.261,6.839h-4.715a6.5,6.5,0,0,1-1.848-.251,3.048,3.048,0,0,1-1.471-.993l-3.068-3.445c-.5.1-1.006.176-1.521.239s-1.043.088-1.584.088a13.87,13.87,0,0,1-5.255-.968A11.854,11.854,0,0,1,95.64,39.2a13.854,13.854,0,0,1,0-9.982,11.849,11.849,0,0,1,2.615-4.011,12.068,12.068,0,0,1,4.061-2.665,13.87,13.87,0,0,1,5.255-.968,13.634,13.634,0,0,1,5.255.981,12.106,12.106,0,0,1,4.048,2.678,11.883,11.883,0,0,1,2.6,4.011A13.483,13.483,0,0,1,120.4,34.224Zm-5.871,0a10.821,10.821,0,0,0-.478-3.307,6.816,6.816,0,0,0-1.37-2.489,5.909,5.909,0,0,0-2.175-1.559,7.442,7.442,0,0,0-2.942-.541,7.613,7.613,0,0,0-2.967.541,5.853,5.853,0,0,0-2.188,1.559,7.2,7.2,0,0,0-1.37,2.489,11.725,11.725,0,0,0,0,6.626,6.816,6.816,0,0,0,1.37,2.489,5.853,5.853,0,0,0,2.188,1.559,7.8,7.8,0,0,0,2.967.541,7.529,7.529,0,0,0,2.942-.541,5.769,5.769,0,0,0,2.175-1.559,7.2,7.2,0,0,0,1.37-2.489A10.847,10.847,0,0,0,114.524,34.224Zm24.29-12.359v4.551h-6.7V46.595h-5.733V26.416h-6.7V21.865Zm21.939,0v4.551H153.8V46.595h-5.733V26.416h-6.7V21.865ZM34.375,35.858H34.3v9.756A1.288,1.288,0,0,0,35.582,46.9H45.628A11.246,11.246,0,0,0,34.375,35.858Zm0-8.046H34.3v4.149A15.155,15.155,0,0,1,49.412,46.9h4.3A19.307,19.307,0,0,0,34.375,27.812ZM59.809,45.627V36.814A27.462,27.462,0,0,0,43.7,21.4H35.582A1.288,1.288,0,0,0,34.3,22.682v1.245A23.216,23.216,0,0,1,57.5,46.909h1.031a1.3,1.3,0,0,0,1.282-1.282ZM56.452,24.958a36.007,36.007,0,0,1,3.357,4V22.67a1.266,1.266,0,0,0-1.27-1.27H52.065A33.532,33.532,0,0,1,56.452,24.958Z" transform="translate(7560.7 509.6)" fill="#fff"/>
  </g>
</svg>
