<svg id="g2303" xmlns="http://www.w3.org/2000/svg" width="126.444" height="36.698" viewBox="0 0 126.444 36.698">
  <path id="path46" d="M158.117,41.076q0-5.817-3.317-5.978a6.231,6.231,0,0,0-2.575.423,3.782,3.782,0,0,0-1.353.714v9.256a6.572,6.572,0,0,0,3.766,1.236Q158.116,46.5,158.117,41.076Zm2.728.161a8.226,8.226,0,0,1-1.391,4.906,5.13,5.13,0,0,1-4.306,2.271,7.639,7.639,0,0,1-4.275-1.3v8.413l-2.373-.846V36.009a5.3,5.3,0,0,1,1.5-1.236,10.279,10.279,0,0,1,5.147-1.267l.034.034a4.722,4.722,0,0,1,4.267,2.271A9.654,9.654,0,0,1,160.846,41.237Z" transform="translate(-110.442 -25.452)" fill="#fff"/>
  <path id="path48" d="M216.452,46.758q0,3.964-.794,5.49a5.6,5.6,0,0,1-3.04,2.435,11.635,11.635,0,0,1-3.93.781l-.392-1.5a18.885,18.885,0,0,0,3.021-.584A3.993,3.993,0,0,0,213.69,51.6a8.964,8.964,0,0,0,.519-3.735v-.618a12.189,12.189,0,0,1-5.1,1.1,4.689,4.689,0,0,1-3.086-1.1,3.753,3.753,0,0,1-1.5-3.053V34.319l2.373-.812v9.939a3.02,3.02,0,0,0,1.028,2.453,3.885,3.885,0,0,0,2.661.828,6.654,6.654,0,0,0,3.491-1.267v-11.6h2.373Z" transform="translate(-151.549 -25.452)" fill="#fff"/>
  <path id="path50" d="M265.732,36.027c-.283.023-.542.034-.781.034a4.67,4.67,0,0,1-3.136-.96,3.319,3.319,0,0,1-1.119-2.655V23.1h-1.625V21.608H260.7V17.644l2.37-.844v4.807h2.666V23.1h-2.666v9.28a2.248,2.248,0,0,0,.716,1.89,3.623,3.623,0,0,0,1.949.522Z" transform="translate(-191.567 -13.195)" fill="#fff"/>
  <path id="path52" d="M306.157,25.9h-2.373V16.741a4.331,4.331,0,0,0-.651-2.4,2.371,2.371,0,0,0-2.09-1.137,7.7,7.7,0,0,0-4.08,1.721V25.9H294.59V4.009l2.373-.748v9.97a8.266,8.266,0,0,1,4.971-1.656,3.962,3.962,0,0,1,3.053,1.267,4.461,4.461,0,0,1,1.171,3.151V25.9Z" transform="translate(-217.627 -3.262)" fill="#fff"/>
  <path id="path54" d="M356.64,40.7a7.291,7.291,0,0,0-.846-3.694,3.543,3.543,0,0,0-3.118-1.877q-3.9.226-3.9,5.586a9.188,9.188,0,0,0,.815,4.1,3.277,3.277,0,0,0,3.13,2.066Q356.64,46.857,356.64,40.7Zm2.6.016a8.438,8.438,0,0,1-1.625,5.3,5.843,5.843,0,0,1-4.937,2.37,5.727,5.727,0,0,1-4.875-2.37,8.553,8.553,0,0,1-1.591-5.3,7.56,7.56,0,0,1,1.721-5.036,5.93,5.93,0,0,1,4.776-2.175,6.029,6.029,0,0,1,4.81,2.175A7.56,7.56,0,0,1,359.238,40.718Z" transform="translate(-255.5 -25.452)" fill="#fff"/>
  <path id="path56" d="M414.6,48.09h-2.373V38.413a3.236,3.236,0,0,0-.958-2.487,3.478,3.478,0,0,0-2.552-.859,5.7,5.7,0,0,0-3.216,1.1V48.09h-2.373V35.877A11.687,11.687,0,0,1,406.9,33.93a11.5,11.5,0,0,1,2.861-.423,7.424,7.424,0,0,1,1.591.164,4.578,4.578,0,0,1,2.274,1.2,3.181,3.181,0,0,1,.976,2.339Z" transform="translate(-297.264 -25.452)" fill="#fff"/>
  <path id="path1948" d="M20.217,6.4a20.388,20.388,0,0,0-3.412.291c-3.022.534-3.57,1.651-3.57,3.712v2.721h7.14v.907h-9.82a4.458,4.458,0,0,0-4.461,3.62,13.347,13.347,0,0,0,0,7.257c.508,2.114,1.72,3.62,3.795,3.62h2.455V25.264A4.538,4.538,0,0,1,16.8,20.828h7.132a3.6,3.6,0,0,0,3.57-3.628V10.4a3.986,3.986,0,0,0-3.57-3.712A22.271,22.271,0,0,0,20.217,6.4ZM16.355,8.586a1.361,1.361,0,1,1-1.34,1.365A1.355,1.355,0,0,1,16.355,8.586Z" transform="translate(-5.591 -5.562)" fill="#fff"/>
  <path id="path1950" d="M49.454,35.054v3.171a4.58,4.58,0,0,1-4.461,4.527H37.862a3.643,3.643,0,0,0-3.57,3.628v6.8c0,1.935,1.683,3.073,3.57,3.628a11.949,11.949,0,0,0,7.132,0c1.8-.521,3.57-1.568,3.57-3.628V50.459H41.432v-.907h10.7c2.075,0,2.849-1.448,3.57-3.62a12.255,12.255,0,0,0,0-7.257c-.513-2.066-1.492-3.62-3.57-3.62ZM45.443,52.273a1.361,1.361,0,1,1-1.34,1.356A1.348,1.348,0,0,1,45.443,52.273Z" transform="translate(-26.648 -26.588)" fill="#fff"/>
  <path id="text3004" d="M460.839,18.865h.416V16.256h.985v-.311h-2.387v.311h.985v2.609m1.77,0h.356V16.483l.771,2.382h.4l.8-2.374v2.375h.388v-2.92h-.513l-.878,2.5-.749-2.5h-.574v2.92" transform="translate(-338.879 -12.568)" fill="#fff"/>
  <path id="path1894" d="M28.365,101.976c0,1.025-4.284,1.855-9.569,1.855S9.228,103,9.228,101.976s4.284-1.855,9.569-1.855,9.569.831,9.569,1.855Z" transform="translate(-3.932 -67.133)" fill="#fff" opacity="0.444"/>
</svg>
