<svg xmlns="http://www.w3.org/2000/svg" width="164" height="81" viewBox="0 0 164 81">
  <g id="Group_22" data-name="Group 22" transform="translate(-583 -2925)">
    <path id="surface1" d="M35.007,21.558l-.313-.472c0-3.771-1.725-5.19-3.617-6.291.632-.16,1.258-.315,1.419-1.1,1.1-.311,1.258-.786,1.412-1.258a1.818,1.818,0,0,0,1.1-1.573,1.273,1.273,0,0,0,.632-1.412,1.7,1.7,0,0,0,.472-1.573,1.446,1.446,0,0,0,.154-1.733c.473-.947,0-1.887-1.258-1.733-.467-.786-1.727-.626-1.887-.626-.153-.315-.472-.472-1.258-.315a1.943,1.943,0,0,0-2.04-.157c-.786-.629-1.26-.154-1.733,0-.947-.315-1.1.157-1.573.311-.947-.153-1.258.321-1.733.786H24.32A6.918,6.918,0,0,0,21.8,7.879a5.654,5.654,0,0,0-2.519-3.466h-.466c-.473-.466-.786-.939-1.733-.786-.472-.153-.626-.626-1.573-.313A2.314,2.314,0,0,0,14.409,3c-.157,0-.311.16-.632.315a1.4,1.4,0,0,0-1.725.157,1.209,1.209,0,0,0-1.26.315c-.16,0-1.412-.16-1.887.626C7.486,4.261,7.02,5.2,7.486,6.146c-.313.472-.466.786.16,1.733-.315.313-.16.939.472,1.412a1.358,1.358,0,0,0,.629,1.573c-.154.786.786,1.258.944,1.573.154.472.315.947,1.415,1.258.157.786.786.94,1.419,1.1-2.046,1.1-3.619,2.674-3.619,6.291l-.315.472a6.39,6.39,0,0,0-1.106,9.436,15.343,15.343,0,0,0,.786,2.834,6.838,6.838,0,0,0,4.252,5.5,12.906,12.906,0,0,0,4.084,2.359,6.864,6.864,0,0,0,10.07,0,12.905,12.905,0,0,0,4.084-2.359,6.823,6.823,0,0,0,4.246-5.5c.318-.947.631-1.733.945-2.834a6.064,6.064,0,0,0-.947-9.436Zm-2.038-.632c-.16,1.573-7.711-5.183-6.451-5.344C30.135,14.956,33.123,16.994,32.969,20.926ZM24.631,5.36c0,.315.153.472.153.626.473-.466.786-.939,1.26-1.412,0,.315-.153.472.16.786a2.887,2.887,0,0,1,1.258-1.1c-.319.475,0,.629.154.786A6.91,6.91,0,0,1,29.188,4.1c-.153.311-.472.472-.153.786A5.428,5.428,0,0,1,30.922,4.1c-.16.311-.634.472-.473.786.472-.154,1.1-.315,1.733-.475-.321.321-.634.473-.321.634a2.988,2.988,0,0,1,2.046-.16l-.472.473h1.892a3.962,3.962,0,0,0-.786,1.412h.786c-.321.947-.947,1.107-1.107,1.42.16.153.473.153.947,0A5.488,5.488,0,0,1,33.908,9.6c.157.16.311.16.786,0-.475.473-.94.786-1.415,1.26.154.16.475.16.786.16a7.609,7.609,0,0,1-1.884,1.1c.153.313.466.153.626.153a6.491,6.491,0,0,1-1.887.786.807.807,0,0,0,.629.321c-.786.466-1.887.153-2.2.466,0,.16.315.321.475.473-1.26,0-4.565,0-5.191-2.512,1.258-1.42,3.458-2.993,7.39-5.039A26.111,26.111,0,0,0,24,11.025c-2.512-1.26-.786-4.405.634-5.665ZM21.8,14.481c1.887,0,4.246,1.415,4.246,2.834,0,1.252-1.727,2.2-4.246,2.2s-4.246-1.258-4.246-2.359S19.6,14.481,21.8,14.481Zm-9.6-.944a.812.812,0,0,0,.634-.315,6.137,6.137,0,0,1-2.046-.947,1.455,1.455,0,0,0,.786-.153,12.238,12.238,0,0,1-1.887-1.1,1.169,1.169,0,0,0,.786-.159c-.472-.315-.944-.786-1.419-1.1h.786A11.479,11.479,0,0,1,8.593,8.191a1.011,1.011,0,0,0,.939,0c-.153-.311-.939-.472-1.258-1.258H9.06A5.877,5.877,0,0,0,8.433,5.52H10.32l-.475-.634a4.191,4.191,0,0,1,2.046.16c.315-.16,0-.473-.313-.634.626.16,1.258.321,1.733.473.313-.313-.16-.472-.473-.786a3.589,3.589,0,0,1,1.886.786c.315-.313,0-.472-.16-.786a6.789,6.789,0,0,1,1.573.947.618.618,0,0,0,.16-.786,7.108,7.108,0,0,1,1.1,1.1c.311-.16.157-.472.157-.786a10.791,10.791,0,0,1,1.261,1.412c.153,0,.153-.313.153-.626,1.26,1.258,3.145,4.4.473,5.665a22.977,22.977,0,0,0-8.024-4.252c3.932,2.046,6.138,3.619,7.4,5.039-.634,2.512-3.932,2.672-5.191,2.512.313-.153.472-.313.472-.472-.159-.154-1.106,0-1.892-.315Zm4.405,1.884c1.26.16-6.291,6.924-6.443,5.352C10.005,16.994,12.99,14.8,16.609,15.422ZM8.593,30.362A4.936,4.936,0,0,1,9.532,22.5C11.578,21.873,10.318,31,8.593,30.362Zm7.23,7.863c-1.1.634-3.617.321-5.344-2.2-1.26-2.2-1.1-4.4-.16-5.033,1.26-.786,3.306.315,4.718,2.048,1.26,1.412,1.887,4.245.786,5.183Zm-2.044-9.589c-1.887-1.26-2.2-4.092-.786-6.451,1.573-2.2,4.251-3.145,6.137-1.886s2.2,4.092.786,6.451-4.246,3.145-6.138,1.886ZM21.8,42.63c-2.359.16-4.558-1.886-4.558-2.512,0-.947,2.825-1.733,4.718-1.733,1.886-.16,4.4.626,4.4,1.573,0,.626-2.359,2.674-4.558,2.674Zm4.718-10.062a4.4,4.4,0,0,1-4.558,4.245,4.547,4.547,0,0,1-4.718-4.246A4.4,4.4,0,0,1,21.8,28.324a4.448,4.448,0,0,1,4.718,4.245Zm-2.831-5.978a4.623,4.623,0,0,1,.786-6.451c1.884-1.252,4.718-.466,6.137,1.893s1.1,5.183-.786,6.443c-1.893,1.1-4.718.315-6.138-1.886Zm9.436,9.436c-2.048,2.831-4.718,2.831-5.658,2.044-1.107-.944-.321-4.089,1.252-5.816,1.573-1.893,3.466-3.145,4.565-2.206a5.817,5.817,0,0,1-.16,5.978Zm1.419-5.819c-1.733.786-3.145-8.335-.947-7.863A4.938,4.938,0,0,1,34.542,30.208Z" transform="translate(643.128 2942.002)" fill="#fff"/>
    <rect id="Rectangle_15" data-name="Rectangle 15" width="164" height="81" transform="translate(583 2925)" fill="none"/>
  </g>
</svg>
