<svg xmlns="http://www.w3.org/2000/svg" width="164" height="81" viewBox="0 0 164 81">
  <g id="Group_21" data-name="Group 21" transform="translate(-914 -1706)">
    <rect id="Rectangle_7" data-name="Rectangle 7" width="164" height="81" transform="translate(914 1706)" fill="none"/>
    <g id="Group_13" data-name="Group 13" transform="translate(924.967 1730.429)">
      <path id="Path_30" data-name="Path 30" d="M83.246,222.586c-.86.224-2,.447-3.406.688a29.429,29.429,0,0,1-4.9.361,10.5,10.5,0,0,1-4.077-.705,6.541,6.541,0,0,1-2.667-2,8.061,8.061,0,0,1-1.445-3.045A16.086,16.086,0,0,1,66.3,214V202.217h3.733v10.959c0,2.563.4,4.387,1.2,5.488a4.725,4.725,0,0,0,4.077,1.652c.413,0,.826-.017,1.256-.034.43-.034.843-.069,1.2-.1.378-.034.723-.086,1.032-.12a2.951,2.951,0,0,0,.671-.138V202.2h3.75l.017,20.386Z" transform="translate(-66.3 -191.843)" fill="#fff"/>
      <path id="Path_31" data-name="Path 31" d="M200.116,153.268a10.773,10.773,0,0,1,2.082-.929,10.664,10.664,0,0,1,7.243.327,8.386,8.386,0,0,1,2.976,2.254,10.163,10.163,0,0,1,1.841,3.475,15.043,15.043,0,0,1,.619,4.439,13.579,13.579,0,0,1-.74,4.576,9.75,9.75,0,0,1-2.116,3.458,9.316,9.316,0,0,1-3.3,2.185,11.7,11.7,0,0,1-4.37.774,26.531,26.531,0,0,1-4.645-.361q-2.013-.361-3.3-.723V142.654l3.716-.654v11.268Zm0,16.808a14.764,14.764,0,0,0,1.6.31,18.079,18.079,0,0,0,2.563.138,6.291,6.291,0,0,0,4.851-2,8.155,8.155,0,0,0,1.824-5.677,13.073,13.073,0,0,0-.327-3.028,7.005,7.005,0,0,0-1.049-2.443,5.169,5.169,0,0,0-1.875-1.617,5.986,5.986,0,0,0-2.77-.585,7.17,7.17,0,0,0-2.821.533,7.65,7.65,0,0,0-1.978,1.084l-.017,13.281Z" transform="translate(-174.018 -142)" fill="#fff"/>
      <path id="Path_32" data-name="Path 32" d="M343.863,222.586c-.86.224-2,.447-3.406.688a29.429,29.429,0,0,1-4.9.361,10.5,10.5,0,0,1-4.077-.705,6.541,6.541,0,0,1-2.667-2,8.353,8.353,0,0,1-1.462-3.045A16.086,16.086,0,0,1,326.9,214V202.217h3.75v10.959c0,2.563.413,4.387,1.2,5.488a4.725,4.725,0,0,0,4.077,1.652c.413,0,.826-.017,1.256-.034.43-.034.826-.069,1.2-.1s.723-.086,1.032-.12a2.951,2.951,0,0,0,.671-.138V202.2h3.75l.017,20.386Z" transform="translate(-282.067 -191.843)" fill="#fff"/>
      <path id="Path_33" data-name="Path 33" d="M457,200.549c.86-.224,2.013-.447,3.441-.688a29.794,29.794,0,0,1,4.92-.361,10.777,10.777,0,0,1,4.163.705,6.6,6.6,0,0,1,2.649,1.978,7.752,7.752,0,0,1,1.393,3.045,17.41,17.41,0,0,1,.4,3.922v11.784h-3.75V209.96a18.12,18.12,0,0,0-.258-3.3,5.7,5.7,0,0,0-.86-2.219,3.424,3.424,0,0,0-1.617-1.239,7.049,7.049,0,0,0-2.495-.378c-.413,0-.826.017-1.256.034q-.645.052-1.239.1c-.4.034-.74.086-1.049.138s-.533.086-.671.12v17.72H457V200.549Z" transform="translate(-389.785 -189.608)" fill="#fff"/>
      <path id="Path_34" data-name="Path 34" d="M588.033,170.8h7.948v3.148h-7.948v9.686a11.906,11.906,0,0,0,.241,2.6,4.032,4.032,0,0,0,.723,1.617,2.537,2.537,0,0,0,1.2.826,5.57,5.57,0,0,0,1.7.241,8.023,8.023,0,0,0,2.753-.378c.671-.258,1.135-.43,1.376-.551l.809,3.062a14.993,14.993,0,0,1-2,.723,11.086,11.086,0,0,1-3.252.447,9.788,9.788,0,0,1-3.527-.551,5.159,5.159,0,0,1-2.236-1.634,6.4,6.4,0,0,1-1.187-2.684,18.043,18.043,0,0,1-.344-3.7v-18.7l3.75-.654-.017,6.5Z" transform="translate(-495.185 -160.464)" fill="#fff"/>
      <path id="Path_35" data-name="Path 35" d="M689.463,222.586c-.86.224-2,.447-3.406.688a29.43,29.43,0,0,1-4.9.361,10.5,10.5,0,0,1-4.077-.705,6.54,6.54,0,0,1-2.667-2,8.354,8.354,0,0,1-1.462-3.045A16.089,16.089,0,0,1,672.5,214V202.217h3.75v10.959c0,2.563.4,4.387,1.2,5.488a4.725,4.725,0,0,0,4.077,1.652c.4,0,.826-.017,1.256-.034.43-.034.826-.069,1.2-.1s.723-.086,1.032-.12a2.953,2.953,0,0,0,.671-.138V202.2h3.75l.017,20.386Z" transform="translate(-568.212 -191.843)" fill="#fff"/>
    </g>
    <circle id="Ellipse_52" data-name="Ellipse 52" cx="8.481" cy="8.481" r="8.481" transform="translate(1049.676 1730.429)" fill="#fff"/>
    <g id="Group_14" data-name="Group 14" transform="translate(1051.81 1733.366)">
      <path id="Path_36" data-name="Path 36" d="M805.664,164.615a1.032,1.032,0,1,1-1.032-1.032A1.035,1.035,0,0,1,805.664,164.615Zm5.9,5.041a1.033,1.033,0,1,0,.378-1.411A1.023,1.023,0,0,0,811.565,169.656Zm1.789-9.032a1.033,1.033,0,1,0-1.411.378A1.058,1.058,0,0,0,813.354,160.624Zm-3.51,1.032a2.956,2.956,0,0,1,2.942,2.684l1.5-.017a4.387,4.387,0,0,0-1.307-2.873,1.459,1.459,0,0,1-1.961-1.135,4.363,4.363,0,0,0-1.17-.155,4.522,4.522,0,0,0-1.978.465l.723,1.307A3.11,3.11,0,0,1,809.845,161.656Zm-2.959,2.959a3,3,0,0,1,1.256-2.426l-.774-1.29a4.51,4.51,0,0,0-1.841,2.563,1.479,1.479,0,0,1,.551,1.135,1.427,1.427,0,0,1-.551,1.135,4.381,4.381,0,0,0,1.841,2.563l.774-1.29A2.863,2.863,0,0,1,806.886,164.615Zm2.959,2.959a2.968,2.968,0,0,1-1.239-.275l-.723,1.307a4.522,4.522,0,0,0,1.978.464,4.365,4.365,0,0,0,1.17-.155,1.453,1.453,0,0,1,.705-1.032,1.473,1.473,0,0,1,1.256-.1,4.387,4.387,0,0,0,1.307-2.873l-1.5-.017A2.985,2.985,0,0,1,809.845,167.574Z" transform="translate(-803.6 -159.07)" fill="#484848"/>
    </g>
  </g>
</svg>
