<svg xmlns="http://www.w3.org/2000/svg" width="164" height="81" viewBox="0 0 164 81">
  <g id="Group_24" data-name="Group 24" transform="translate(-7544 -572)">
    <rect id="Rectangle_7" data-name="Rectangle 7" width="164" height="81" transform="translate(7544 572)" fill="none"/>
    <path id="zigbee-svgrepo-com" d="M18.428,0A18.246,18.246,0,0,0,5.161,5.691c10.809-1.347,17.554-.9,20.461-.524,5.777.9,5.478,5.241,5.478,5.241L12.653,29.427c3.54.339,10.619.564,21.242-.972a18.261,18.261,0,0,0,2.944-9.96A18.446,18.446,0,0,0,18.428,0Zm.357,6.636A108.659,108.659,0,0,0,3.445,7.749a18.522,18.522,0,0,0,14.983,29.2,18.345,18.345,0,0,0,13.939-6.439c-11.218,1.46-18.189.972-21.171.6C5.384,30.249,5.72,25.87,5.72,25.87L24.13,6.889q-2.665-.246-5.344-.251Z" transform="translate(7607.945 595)" fill="#fff"/>
  </g>
</svg>
